<svg version="1.1" xmlns="http://www.w3.org/2000/svg" viewBox="0 0 1089.1907144373047 1178.176783193773" width="1089.1907144373047" height="1178.176783193773">
  <!-- svg-source:excalidraw -->
  
  <defs>
    <style class="style-fonts">
      @font-face {
        font-family: "Virgil";
        src: url("https://excalidraw.com/Virgil.woff2");
      }
      @font-face {
        font-family: "Cascadia";
        src: url("https://excalidraw.com/Cascadia.woff2");
      }
    </style>
  </defs>
  <g stroke-linecap="round" transform="translate(726.7005005848532 139.0129212775323) rotate(0 114 24.5)"><path d="M12.25 0 M12.25 0 C58.76 -0.45, 104.36 -0.67, 215.75 0 M12.25 0 C80.98 1.59, 150.66 1.28, 215.75 0 M215.75 0 C224.15 -1.19, 227.06 3.68, 228 12.25 M215.75 0 C225.15 0.09, 228.9 2.61, 228 12.25 M228 12.25 C225.97 17.04, 229.62 22.88, 228 36.75 M228 12.25 C228.44 21.16, 228.48 27.64, 228 36.75 M228 36.75 C226.3 43.54, 223.8 49.26, 215.75 49 M228 36.75 C230.26 43.44, 224.23 47.61, 215.75 49 M215.75 49 C170.39 49.45, 128.99 52.29, 12.25 49 M215.75 49 C153.44 48.87, 89.84 48.26, 12.25 49 M12.25 49 C4.81 50.21, -0.9 46.76, 0 36.75 M12.25 49 C5.95 51.25, -1.11 44.73, 0 36.75 M0 36.75 C1.74 28.26, 1.78 17.15, 0 12.25 M0 36.75 C0.39 29.89, -0.68 23.22, 0 12.25 M0 12.25 C0.6 4.09, 5.09 -0.13, 12.25 0 M0 12.25 C1.69 4.6, 3.56 -1.43, 12.25 0" stroke="#000000" stroke-width="1" fill="none"></path></g><g transform="translate(726.7005005848532 151.5129212775323) rotate(0 41.5 12)"><text x="0" y="19" font-family="Cascadia, Segoe UI Emoji" font-size="20px" fill="#000000" text-anchor="start" style="white-space: pre;" direction="ltr">   data</text></g><g stroke-linecap="round" transform="translate(726.932479358884 228.11726428472303) rotate(0 114.00000000000006 24.5)"><path d="M12.25 0 M12.25 0 C57.74 -0.37, 105.93 -0.96, 215.75 0 M12.25 0 C85.44 -0.5, 160.01 -0.08, 215.75 0 M215.75 0 C224.55 1.22, 226.69 5.41, 228 12.25 M215.75 0 C224.3 -0.22, 227.53 6.19, 228 12.25 M228 12.25 C226.55 20.39, 228.33 27.6, 228 36.75 M228 12.25 C227.46 17.14, 228.25 21.95, 228 36.75 M228 36.75 C227.04 44.89, 223.92 49.75, 215.75 49 M228 36.75 C226.41 43.51, 225.27 47.76, 215.75 49 M215.75 49 C158.76 50.53, 100.36 50.26, 12.25 49 M215.75 49 C155 47.29, 93.85 47.23, 12.25 49 M12.25 49 C2.26 50.79, -0.91 44.71, 0 36.75 M12.25 49 C4.72 48.71, -1.94 44.94, 0 36.75 M0 36.75 C0.85 30.78, -0.68 24.38, 0 12.25 M0 36.75 C-0.54 28.08, 0.17 21.61, 0 12.25 M0 12.25 C-0.5 4.02, 6.01 1.43, 12.25 0 M0 12.25 C-0.34 5.59, 5.5 -0.81, 12.25 0" stroke="#000000" stroke-width="1" fill="none"></path></g><g transform="translate(726.932479358884 240.61726428472303) rotate(0 41.5 12)"><text x="0" y="19" font-family="Cascadia, Segoe UI Emoji" font-size="20px" fill="#000000" text-anchor="start" style="white-space: pre;" direction="ltr">   data</text></g><g stroke-linecap="round" transform="translate(725.7797419211767 359.2436490735193) rotate(0 114.00000000000006 24.5)"><path d="M12.25 0 M12.25 0 C71.99 -0.61, 130.18 0.88, 215.75 0 M12.25 0 C72.8 0.99, 133.26 2.48, 215.75 0 M215.75 0 C225.6 1.85, 229.24 3.51, 228 12.25 M215.75 0 C223.01 -0.09, 227.84 3.45, 228 12.25 M228 12.25 C228.66 20.82, 228.81 31.94, 228 36.75 M228 12.25 C228.61 19.97, 228.09 27.96, 228 36.75 M228 36.75 C228.64 45.47, 223.61 48.58, 215.75 49 M228 36.75 C226.46 46.02, 225.73 50.8, 215.75 49 M215.75 49 C134.73 48.87, 53.57 46.76, 12.25 49 M215.75 49 C166.89 48.2, 118.37 47.76, 12.25 49 M12.25 49 C4.5 50.31, 1.84 46.21, 0 36.75 M12.25 49 C5.42 50.59, -2.28 45.39, 0 36.75 M0 36.75 C0.38 32.48, -0.72 22.86, 0 12.25 M0 36.75 C-0.57 29.73, 0.59 20.8, 0 12.25 M0 12.25 C1.32 3.15, 5.29 0.52, 12.25 0 M0 12.25 C1.66 5.52, 2.99 1.4, 12.25 0" stroke="#000000" stroke-width="1" fill="none"></path></g><g transform="translate(725.7797419211767 371.7436490735193) rotate(0 41.5 12)"><text x="0" y="19" font-family="Cascadia, Segoe UI Emoji" font-size="20px" fill="#000000" text-anchor="start" style="white-space: pre;" direction="ltr">   data</text></g><g stroke-linecap="round" transform="translate(854.2641006876848 235.78874104776907) rotate(0 46.00000000000006 17.5)"><path d="M8.75 0 M8.75 0 C34.71 -0.64, 63.44 2.23, 83.25 0 M8.75 0 C24.01 0.96, 39.69 0.85, 83.25 0 M83.25 0 C88.28 0.96, 93.47 4.8, 92 8.75 M83.25 0 C89.81 1.4, 90.49 4.44, 92 8.75 M92 8.75 C93.59 14.76, 90.59 19.81, 92 26.25 M92 8.75 C91.72 12.14, 92.3 17.72, 92 26.25 M92 26.25 C90.75 31.45, 89.42 33.58, 83.25 35 M92 26.25 C90.9 32.05, 89.09 35.86, 83.25 35 M83.25 35 C64.96 35.02, 50.17 35.47, 8.75 35 M83.25 35 C62.29 34.27, 40.11 33.36, 8.75 35 M8.75 35 C3.63 34.91, 0.54 31.85, 0 26.25 M8.75 35 C0.82 37.06, -1.05 31.85, 0 26.25 M0 26.25 C0.04 19.9, 1.54 15.01, 0 8.75 M0 26.25 C0.22 20.24, -0.5 13.37, 0 8.75 M0 8.75 C-1.32 1.2, 2.99 0.98, 8.75 0 M0 8.75 C-0.58 2.84, 5.13 1.64, 8.75 0" stroke="#000000" stroke-width="1" fill="none"></path></g><g stroke-linecap="round" transform="translate(853.1113632499777 365.92099871074066) rotate(0 45.99999999999994 17.5)"><path d="M8.75 0 M8.75 0 C28.14 0.87, 49.19 1.43, 83.25 0 M8.75 0 C23.52 1.49, 41.12 1.44, 83.25 0 M83.25 0 C90.32 -0.58, 91.21 2.83, 92 8.75 M83.25 0 C88.92 -0.64, 93.75 4.83, 92 8.75 M92 8.75 C92.57 14.13, 92.51 15.8, 92 26.25 M92 8.75 C92.41 14.55, 92.42 21.1, 92 26.25 M92 26.25 C91.7 31.67, 87.75 35.96, 83.25 35 M92 26.25 C93.81 33.88, 91.36 36.57, 83.25 35 M83.25 35 C64.05 33.57, 43.35 33.98, 8.75 35 M83.25 35 C63.36 34.14, 43.78 35.5, 8.75 35 M8.75 35 C4.75 36.29, 1.16 33.46, 0 26.25 M8.75 35 C0.64 35.47, -1.2 34.23, 0 26.25 M0 26.25 C-0.48 19.68, 0.12 14.86, 0 8.75 M0 26.25 C0.49 20.59, 0.71 15.87, 0 8.75 M0 8.75 C1.21 3.43, 4.36 1.25, 8.75 0 M0 8.75 C-1.09 4.31, 4.53 0.71, 8.75 0" stroke="#000000" stroke-width="1" fill="none"></path></g><g transform="translate(865.2641006876847 240.78874104776907) rotate(0 35 12.5)"><text x="35" y="18" font-family="Virgil, Segoe UI Emoji" font-size="20px" fill="#000000" text-anchor="middle" style="white-space: pre;" direction="ltr">0, 9, 4</text></g><g transform="translate(869.1113632499776 370.92099871074066) rotate(0 30 12.5)"><text x="30" y="18" font-family="Virgil, Segoe UI Emoji" font-size="20px" fill="#000000" text-anchor="middle" style="white-space: pre;" direction="ltr">7, 1, 5</text></g><g stroke-linecap="round" transform="translate(316.08317334026503 214.8535770961858) rotate(0 328.243596200631 39.59901041172187)"><path d="M19.8 0 M19.8 0 C145.71 2.28, 269.84 2.12, 636.69 0 M19.8 0 C176.73 -1.31, 332.79 -1.32, 636.69 0 M636.69 0 C651.36 1.88, 657.12 7.82, 656.49 19.8 M636.69 0 C648.38 1.52, 656.87 6.38, 656.49 19.8 M656.49 19.8 C655.26 30.85, 655.6 42.07, 656.49 59.4 M656.49 19.8 C656.69 33.49, 655.73 45.34, 656.49 59.4 M656.49 59.4 C656.83 71.18, 648.93 79.17, 636.69 79.2 M656.49 59.4 C656.49 73.46, 648.3 77.79, 636.69 79.2 M636.69 79.2 C415.79 78.7, 193.74 79.36, 19.8 79.2 M636.69 79.2 C511.81 78.83, 386.95 79.18, 19.8 79.2 M19.8 79.2 C7.14 78.97, -1.83 74.39, 0 59.4 M19.8 79.2 C5.55 78.96, 0.63 72.31, 0 59.4 M0 59.4 C1.73 51.11, 1.06 42.83, 0 19.8 M0 59.4 C-0.64 47.83, -0.78 36.62, 0 19.8 M0 19.8 C0.08 7.58, 6.09 -0.07, 19.8 0 M0 19.8 C2.21 8.24, 6.26 1.51, 19.8 0" stroke="#000000" stroke-width="1" fill="none"></path></g><g stroke-linecap="round" transform="translate(318.44551882899736 348.0402935907406) rotate(0 324.76030538676775 39.59901041172187)"><path d="M19.8 0 M19.8 0 C164.14 -0.11, 307.77 -0.85, 629.72 0 M19.8 0 C160.68 -2, 301.14 -2.49, 629.72 0 M629.72 0 C642.13 -0.08, 649.38 6.05, 649.52 19.8 M629.72 0 C644.68 1.92, 648.26 7.12, 649.52 19.8 M649.52 19.8 C650.17 28.65, 650.56 42.64, 649.52 59.4 M649.52 19.8 C649.96 30.83, 649.49 41.1, 649.52 59.4 M649.52 59.4 C648.18 73.56, 644.5 80.76, 629.72 79.2 M649.52 59.4 C651.79 74.17, 641.99 79.36, 629.72 79.2 M629.72 79.2 C425.52 76.63, 222.03 76.97, 19.8 79.2 M629.72 79.2 C459.53 77.74, 289.54 77.74, 19.8 79.2 M19.8 79.2 C7.76 80.58, -1.98 73.01, 0 59.4 M19.8 79.2 C5.4 81.35, -0.26 73.3, 0 59.4 M0 59.4 C0.29 42.48, -0.21 26.99, 0 19.8 M0 59.4 C0.5 44.79, 0.44 31.37, 0 19.8 M0 19.8 C1.44 7.85, 5.65 1.21, 19.8 0 M0 19.8 C1.62 7.31, 4.96 0.65, 19.8 0" stroke="#000000" stroke-width="1" fill="none"></path></g><g transform="translate(332.16860878075687 241.00795016601506) rotate(0 41.49999999999997 12)"><text x="0" y="19" font-family="Cascadia, Segoe UI Emoji" font-size="20px" fill="#000000" text-anchor="start" style="white-space: pre;" direction="ltr">PixInfo</text></g><g transform="translate(333.07123400115705 373.07897229670385) rotate(0 41.50000000000003 12)"><text x="0" y="19" font-family="Cascadia, Segoe UI Emoji" font-size="20px" fill="#000000" text-anchor="start" style="white-space: pre;" direction="ltr">PixInfo</text></g><g stroke-linecap="round" transform="translate(568.0923433417615 232.70215675355763) rotate(0 74.5 24)"><path d="M12 0 M12 0 C58.43 0.31, 103.1 2.46, 137 0 M12 0 C61.11 1.24, 110.19 0.81, 137 0 M137 0 C146.22 -1.31, 150.32 4.33, 149 12 M137 0 C144.78 -0.47, 151.11 4.62, 149 12 M149 12 C149.13 17.82, 148.33 20.83, 149 36 M149 12 C148.87 20.17, 148.47 27.53, 149 36 M149 36 C148.98 44.01, 145.75 46.62, 137 48 M149 36 C147.59 45.36, 143.76 47.52, 137 48 M137 48 C92.83 45.93, 46.68 47.88, 12 48 M137 48 C97.49 48.72, 57.95 47.53, 12 48 M12 48 C5.79 47.09, -0.2 44.55, 0 36 M12 48 C3.71 46.06, 0.02 43.19, 0 36 M0 36 C0.48 26.26, 0.56 17.82, 0 12 M0 36 C-0.71 30.08, 0.64 23.83, 0 12 M0 12 C-0.07 5.92, 5.43 -0.29, 12 0 M0 12 C1.51 5.42, 3.19 1.86, 12 0" stroke="#000000" stroke-width="1" fill="none"></path></g><g stroke-linecap="round" transform="translate(568.9949685621617 363.9023561807806) rotate(0 73 21.5)"><path d="M10.75 0 M10.75 0 C48.83 -1.5, 89.05 -2.59, 135.25 0 M10.75 0 C60.82 -1.44, 109.25 -1.19, 135.25 0 M135.25 0 C142.28 -0.55, 147.53 5.25, 146 10.75 M135.25 0 C141.15 0.52, 145.26 4.28, 146 10.75 M146 10.75 C146.97 20.18, 145.49 26.96, 146 32.25 M146 10.75 C145.92 16.36, 145.4 22.87, 146 32.25 M146 32.25 C147.58 40.98, 144.39 44.37, 135.25 43 M146 32.25 C145.07 39.58, 143.2 43.17, 135.25 43 M135.25 43 C107.7 41.78, 81.09 42.1, 10.75 43 M135.25 43 C107.58 44.46, 78.65 44.5, 10.75 43 M10.75 43 C1.6 43.41, -1.04 41.29, 0 32.25 M10.75 43 C3.32 43.7, 2.07 38.86, 0 32.25 M0 32.25 C-0.33 26.16, 1.12 23.91, 0 10.75 M0 32.25 C0.46 27.71, 0.58 23.27, 0 10.75 M0 10.75 C-0.95 4.8, 4.99 0.62, 10.75 0 M0 10.75 C-1.64 4.23, 5.41 2.04, 10.75 0" stroke="#000000" stroke-width="1" fill="none"></path></g><g transform="translate(573.0923433417615 244.70215675355763) rotate(0 65 12)"><text x="0" y="19" font-family="Cascadia, Segoe UI Emoji" font-size="20px" fill="#000000" text-anchor="start" style="white-space: pre;" direction="ltr"> offset: 15</text></g><g transform="translate(573.9949685621617 373.4023561807806) rotate(0 59 12)"><text x="0" y="19" font-family="Cascadia, Segoe UI Emoji" font-size="20px" fill="#000000" text-anchor="start" style="white-space: pre;" direction="ltr"> offset: 2</text></g><g stroke-linecap="round" transform="translate(426.4100529232003 230.57671358319277) rotate(0 65.80423789006716 23.87587392471471)"><path d="M11.94 0 M11.94 0 C51.51 1.53, 89.64 -1.05, 119.67 0 M11.94 0 C49.76 -0.41, 86.3 -0.35, 119.67 0 M119.67 0 C127.96 -0.19, 131.2 5.81, 131.61 11.94 M119.67 0 C128.25 -1.83, 131.59 2.54, 131.61 11.94 M131.61 11.94 C129.92 19.93, 133.19 25.34, 131.61 35.81 M131.61 11.94 C131.17 18.34, 131.65 25.14, 131.61 35.81 M131.61 35.81 C130.23 42.55, 128.81 46.67, 119.67 47.75 M131.61 35.81 C131.13 45.31, 127.66 47.53, 119.67 47.75 M119.67 47.75 C78.3 48.81, 35.08 49.21, 11.94 47.75 M119.67 47.75 C86.94 48.52, 55.57 47.53, 11.94 47.75 M11.94 47.75 C4.53 47.5, -1.69 43.79, 0 35.81 M11.94 47.75 C3.17 49.74, 0.29 44.99, 0 35.81 M0 35.81 C0.43 27.01, -1.15 18.95, 0 11.94 M0 35.81 C-0.26 30.66, 0.95 26.29, 0 11.94 M0 11.94 C-0.29 5.29, 5.21 -0.71, 11.94 0 M0 11.94 C1.86 3.13, 3.28 -0.47, 11.94 0" stroke="#000000" stroke-width="1" fill="none"></path></g><g stroke-linecap="round" transform="translate(428.2573154854929 361.70309837198926) rotate(0 65.80423789006716 23.87587392471471)"><path d="M11.94 0 M11.94 0 C48.01 -1.51, 88.8 2.17, 119.67 0 M11.94 0 C53.83 0.27, 96.45 0.03, 119.67 0 M119.67 0 C129.16 1.67, 130.51 4.43, 131.61 11.94 M119.67 0 C126.89 0.7, 133.05 4.59, 131.61 11.94 M131.61 11.94 C131.15 17.63, 131.13 22.73, 131.61 35.81 M131.61 11.94 C130.9 20.24, 132.36 28.37, 131.61 35.81 M131.61 35.81 C133.58 45.14, 126.82 47.9, 119.67 47.75 M131.61 35.81 C132.39 43.94, 125.69 46.35, 119.67 47.75 M119.67 47.75 C93.81 47.42, 67.38 47.94, 11.94 47.75 M119.67 47.75 C80.88 49.14, 39.94 48.65, 11.94 47.75 M11.94 47.75 C2.94 49.62, -0.23 44.38, 0 35.81 M11.94 47.75 C6.05 47.19, -2 44, 0 35.81 M0 35.81 C1.18 31.23, -1.5 26.32, 0 11.94 M0 35.81 C0.58 30.39, -0.62 24.33, 0 11.94 M0 11.94 C1.41 4.6, 2.55 0.57, 11.94 0 M0 11.94 C1.83 6.02, 2.63 1.43, 11.94 0" stroke="#000000" stroke-width="1" fill="none"></path></g><g transform="translate(444.77468491584114 240.13712746254924) rotate(0 47.5 12)"><text x="0" y="19" font-family="Cascadia, Segoe UI Emoji" font-size="20px" fill="#000000" text-anchor="start" style="white-space: pre;" direction="ltr">Universe</text></g><g transform="translate(446.548132839707 371.3373268897722) rotate(0 47.5 12)"><text x="0" y="19" font-family="Cascadia, Segoe UI Emoji" font-size="20px" fill="#000000" text-anchor="start" style="white-space: pre;" direction="ltr">Universe</text></g><g stroke-linecap="round" transform="translate(240.94237524166527 217.1399059775909) rotate(0 30 37)"><path d="M15 0 M15 0 C25.72 -1.07, 35.36 1.2, 45 0 M15 0 C26.17 0.48, 38.82 -0.28, 45 0 M45 0 C54.59 1.83, 60.54 3.41, 60 15 M45 0 C54.98 -1.44, 60.16 5.61, 60 15 M60 15 C61.13 25.48, 58.99 38.78, 60 59 M60 15 C59.79 25.45, 59.1 34.54, 60 59 M60 59 C61.18 67.92, 54.58 75.34, 45 74 M60 59 C60.03 68.78, 56.93 71.76, 45 74 M45 74 C32.1 74.76, 22.77 74.59, 15 74 M45 74 C35.89 74.17, 27.96 74.14, 15 74 M15 74 C3.31 74.02, -0.71 70.73, 0 59 M15 74 C5.29 75.22, 0.59 68.47, 0 59 M0 59 C-1.29 43.17, -1.8 30.06, 0 15 M0 59 C1.07 44.35, -0.04 28.93, 0 15 M0 15 C1.23 4.29, 6.62 -0.74, 15 0 M0 15 C-0.7 4.53, 4.08 1.68, 15 0" stroke="#000000" stroke-width="1" fill="none"></path></g><g stroke-linecap="round" transform="translate(242.78963780395787 348.2662907663874) rotate(0 30 37)"><path d="M15 0 M15 0 C24.58 1.99, 32.13 1.54, 45 0 M15 0 C23.06 -0.26, 32.03 0.85, 45 0 M45 0 C53.9 0.45, 59.36 5.61, 60 15 M45 0 C56.44 0.61, 57.99 6.05, 60 15 M60 15 C59.29 32.44, 60.43 48.31, 60 59 M60 15 C60.49 28.06, 60.69 40.25, 60 59 M60 59 C59.19 69.14, 55.68 74.15, 45 74 M60 59 C58.06 67.6, 53.53 73.22, 45 74 M45 74 C35.24 74.4, 29.6 75.82, 15 74 M45 74 C33.08 74.41, 22.62 75.14, 15 74 M15 74 C4.77 74.61, 1.8 68.51, 0 59 M15 74 C3 74.23, -1.69 68.65, 0 59 M0 59 C-1.79 50.44, -1.19 40.45, 0 15 M0 59 C-0.79 45.27, 0.39 30.63, 0 15 M0 15 C-1.43 5.57, 6.59 1.77, 15 0 M0 15 C-1.35 6.43, 2.96 -1.2, 15 0" stroke="#000000" stroke-width="1" fill="none"></path></g><g transform="translate(257.4423752416653 241.6399059775909) rotate(0 13.5 12.5)"><text x="13.5" y="18" font-family="Virgil, Segoe UI Emoji" font-size="20px" fill="#000000" text-anchor="middle" style="white-space: pre;" direction="ltr">64</text></g><g transform="translate(262.7896378039579 372.7662907663874) rotate(0 10 12.5)"><text x="10" y="18" font-family="Virgil, Segoe UI Emoji" font-size="20px" fill="#000000" text-anchor="middle" style="white-space: pre;" direction="ltr">10</text></g><g stroke-linecap="round" transform="translate(251.02874639038953 576.9003432635968) rotate(0 375.45454545454544 25.45454545454544)"><path d="M12.73 0 M12.73 0 C299.49 2.88, 585.08 1.88, 738.18 0 M12.73 0 C178.61 2.05, 345.27 1.94, 738.18 0 M738.18 0 C746.53 0.08, 749.85 4.08, 750.91 12.73 M738.18 0 C746.78 -1.83, 752.31 2.59, 750.91 12.73 M750.91 12.73 C751.54 19.21, 752.53 25.06, 750.91 38.18 M750.91 12.73 C751.12 22.07, 751.49 33.22, 750.91 38.18 M750.91 38.18 C749.44 48.38, 747.17 52, 738.18 50.91 M750.91 38.18 C749.19 44.77, 746.1 51.73, 738.18 50.91 M738.18 50.91 C451.4 54.32, 163.4 53.56, 12.73 50.91 M738.18 50.91 C457.71 50.82, 177.63 50.16, 12.73 50.91 M12.73 50.91 C5.35 52.53, 0.06 47.59, 0 38.18 M12.73 50.91 C6.47 48.68, 0.71 46.55, 0 38.18 M0 38.18 C0.29 28.51, 0.07 22.42, 0 12.73 M0 38.18 C-0.83 33.7, -0.43 27.52, 0 12.73 M0 12.73 C1.53 2.7, 3.88 1.18, 12.73 0 M0 12.73 C-1.8 3.86, 2.52 1.83, 12.73 0" stroke="#000000" stroke-width="1" fill="none"></path></g><g transform="translate(264.1319135347305 589.8548887181423) rotate(0 47.5 12)"><text x="0" y="19" font-family="Cascadia, Segoe UI Emoji" font-size="20px" fill="#000000" text-anchor="start" style="white-space: pre;" direction="ltr">Universe</text></g><g stroke-linecap="round" transform="translate(378.79737599871817 589.43365955083) rotate(0 65.5 14)"><path d="M7 0 M7 0 C48.25 -0.51, 91.95 -0.76, 124 0 M7 0 C49 -0.24, 90.25 -0.61, 124 0 M124 0 C127.05 -0.67, 130.49 1.04, 131 7 M124 0 C128.82 0.71, 131.89 3.09, 131 7 M131 7 C130.97 9.47, 130.41 12.51, 131 21 M131 7 C131.55 10.89, 131.43 14.83, 131 21 M131 21 C130.37 26.47, 127.91 26.12, 124 28 M131 21 C132.39 25.93, 128.35 29.41, 124 28 M124 28 C78.81 27.69, 38.1 30.49, 7 28 M124 28 C86.52 28.85, 47.55 28.8, 7 28 M7 28 C0.67 29.58, -0.82 25.28, 0 21 M7 28 C4.55 26.01, -1.3 24.92, 0 21 M0 21 C0.22 15.94, 1.37 12.34, 0 7 M0 21 C0.37 16.3, 0.59 11.22, 0 7 M0 7 C1.71 1.71, 1.57 1.67, 7 0 M0 7 C-0.38 3.57, 1.1 -2, 7 0" stroke="#000000" stroke-width="1" fill="none"></path></g><g stroke-linecap="round" transform="translate(379.6398343333427 703.4371684647374) rotate(0 65.5 14)"><path d="M7 0 M7 0 C37.84 -1.07, 67.29 -0.64, 124 0 M7 0 C36.95 1.54, 65 1.41, 124 0 M124 0 C128.17 1.79, 130.68 1.81, 131 7 M124 0 C130.94 0.45, 131.4 0.72, 131 7 M131 7 C132.35 11.66, 130.86 17.45, 131 21 M131 7 C131.27 11.65, 131.24 15.25, 131 21 M131 21 C130.61 23.93, 130.08 26.79, 124 28 M131 21 C131.46 25.99, 129.25 27.24, 124 28 M124 28 C76.41 27.54, 30.12 29.24, 7 28 M124 28 C91.26 28.11, 57.62 29.45, 7 28 M7 28 C3 28.34, -0.2 26.64, 0 21 M7 28 C2.82 30.19, 0.36 25.01, 0 21 M0 21 C1.18 16.49, 0.91 15.2, 0 7 M0 21 C-0.18 18.12, 0.21 13.9, 0 7 M0 7 C1.57 3.57, 1.59 0.02, 7 0 M0 7 C-0.1 1.28, 3.47 1.86, 7 0" stroke="#000000" stroke-width="1" fill="none"></path></g><g transform="translate(388.29737599871817 594.43365955083) rotate(0 56 9)"><text x="56" y="14" font-family="Helvetica, Segoe UI Emoji" font-size="16px" fill="#000000" text-anchor="middle" style="white-space: pre;" direction="ltr">10.0.0.1, 0, 0, 0</text></g><g transform="translate(384.6398343333427 708.4371684647374) rotate(0 60.5 9)"><text x="60.5" y="14" font-family="Helvetica, Segoe UI Emoji" font-size="16px" fill="#000000" text-anchor="middle" style="white-space: pre;" direction="ltr">10.0.0.1, 0, 2, 14</text></g><g stroke-linecap="round" transform="translate(542.3469282085713 584.8548887181423) rotate(0 46 17.5)"><path d="M8.75 0 M8.75 0 C27.1 -1.48, 39.69 0.83, 83.25 0 M8.75 0 C28.57 -0.04, 46.64 -0.74, 83.25 0 M83.25 0 C88.74 -1.9, 93.39 2.6, 92 8.75 M83.25 0 C88.69 1.99, 91.06 2.26, 92 8.75 M92 8.75 C92.82 14.88, 90.53 20.96, 92 26.25 M92 8.75 C91.35 15.65, 91.27 21.64, 92 26.25 M92 26.25 C90.91 32.54, 87.19 33.12, 83.25 35 M92 26.25 C93.03 33.28, 90.16 33.19, 83.25 35 M83.25 35 C54.01 34.85, 27.82 34.26, 8.75 35 M83.25 35 C55.1 34.53, 25.21 34.54, 8.75 35 M8.75 35 C1.28 33.91, -1.34 31.68, 0 26.25 M8.75 35 C2.89 34.55, 0.16 34.35, 0 26.25 M0 26.25 C0.58 22.86, -1.18 19.64, 0 8.75 M0 26.25 C-0.18 19.45, 0.05 13.42, 0 8.75 M0 8.75 C-0.21 3.03, 3.41 0.29, 8.75 0 M0 8.75 C-0.98 1.81, 1.62 -1.11, 8.75 0" stroke="#000000" stroke-width="1" fill="none"></path></g><g transform="translate(551.8469282085713 589.8548887181423) rotate(0 36.5 12.5)"><text x="36.5" y="18" font-family="Virgil, Segoe UI Emoji" font-size="20px" fill="#000000" text-anchor="middle" style="white-space: pre;" direction="ltr">0, 0, 0</text></g><g stroke-linecap="round" transform="translate(641.3923827540258 584.8548887181423) rotate(0 46 17.5)"><path d="M8.75 0 M8.75 0 C33.5 -0.07, 60.13 -0.82, 83.25 0 M8.75 0 C25.39 0.82, 39.46 1.04, 83.25 0 M83.25 0 C90.4 1.72, 90.29 1.9, 92 8.75 M83.25 0 C90.89 0.94, 92.1 2.9, 92 8.75 M92 8.75 C91.96 12.33, 91.85 19.21, 92 26.25 M92 8.75 C92.92 16.16, 91.87 21.91, 92 26.25 M92 26.25 C91 33.21, 88.74 36.92, 83.25 35 M92 26.25 C93.91 32.87, 88.16 36.03, 83.25 35 M83.25 35 C63.56 33.82, 46.45 33.95, 8.75 35 M83.25 35 C67.42 34.36, 49.82 34.27, 8.75 35 M8.75 35 C3.2 36.25, -0.67 31.06, 0 26.25 M8.75 35 C1.29 33.74, -1.49 33.24, 0 26.25 M0 26.25 C-1.27 23.55, -0.01 17.65, 0 8.75 M0 26.25 C0.69 22.85, -0.58 18.43, 0 8.75 M0 8.75 C1.86 2.57, 2.43 0.41, 8.75 0 M0 8.75 C-0.97 3.31, 1.85 -0.27, 8.75 0" stroke="#000000" stroke-width="1" fill="none"></path></g><g transform="translate(650.8923827540258 589.8548887181423) rotate(0 36.5 12.5)"><text x="36.5" y="18" font-family="Virgil, Segoe UI Emoji" font-size="20px" fill="#000000" text-anchor="middle" style="white-space: pre;" direction="ltr">0, 0, 0</text></g><g stroke-linecap="round" transform="translate(739.574200935844 584.8548887181423) rotate(0 46 17.5)"><path d="M8.75 0 M8.75 0 C25.52 0.63, 46.95 -1.72, 83.25 0 M8.75 0 C35.51 0.97, 63.42 1.22, 83.25 0 M83.25 0 C89.58 -1.06, 90.65 4.78, 92 8.75 M83.25 0 C88.69 -0.56, 92.47 1.95, 92 8.75 M92 8.75 C91.3 14.44, 90.38 18.52, 92 26.25 M92 8.75 C91.15 12.93, 91.83 18.89, 92 26.25 M92 26.25 C90.25 31.25, 89.94 34.67, 83.25 35 M92 26.25 C89.74 33.67, 88.99 33.63, 83.25 35 M83.25 35 C66.49 36.36, 48.3 35.11, 8.75 35 M83.25 35 C62.8 35, 40.76 34.62, 8.75 35 M8.75 35 C3 33.89, 0.75 31.57, 0 26.25 M8.75 35 C3.71 36.83, -1.01 32.29, 0 26.25 M0 26.25 C-1.44 23.01, 1.13 18.88, 0 8.75 M0 26.25 C-0.63 21.72, 0.12 18.1, 0 8.75 M0 8.75 C-0.12 1.64, 1.86 1.44, 8.75 0 M0 8.75 C-1.24 1.64, 5.15 1.91, 8.75 0" stroke="#000000" stroke-width="1" fill="none"></path></g><g transform="translate(755.574200935844 589.8548887181423) rotate(0 30 12.5)"><text x="30" y="18" font-family="Virgil, Segoe UI Emoji" font-size="20px" fill="#000000" text-anchor="middle" style="white-space: pre;" direction="ltr">7, 1, 5</text></g><g transform="translate(861.0287463903893 589.8548887181423) rotate(0 8.5 12.5)"><text x="0" y="18" font-family="Virgil, Segoe UI Emoji" font-size="20px" fill="#000000" text-anchor="start" style="white-space: pre;" direction="ltr">...</text></g><g stroke-linecap="round" transform="translate(900.4832918449349 584.8548887181423) rotate(0 46 17.5)"><path d="M8.75 0 M8.75 0 C30.24 -1.2, 50.32 -0.79, 83.25 0 M8.75 0 C36.18 0.59, 64.61 -0.55, 83.25 0 M83.25 0 C89.51 -1.96, 92.7 1.54, 92 8.75 M83.25 0 C91.2 -0.62, 91.19 2.92, 92 8.75 M92 8.75 C91.54 14.9, 92.65 22.15, 92 26.25 M92 8.75 C91.28 16.25, 91.06 22.8, 92 26.25 M92 26.25 C93.57 32.94, 90.12 33.47, 83.25 35 M92 26.25 C90.39 31.55, 87.31 34.18, 83.25 35 M83.25 35 C57.04 36.18, 27.5 33.67, 8.75 35 M83.25 35 C56.07 34.29, 26.93 34.29, 8.75 35 M8.75 35 C4.64 34.96, -0.84 32.76, 0 26.25 M8.75 35 C2.24 34.32, -0.87 32.44, 0 26.25 M0 26.25 C0.2 20.55, 0.69 13.42, 0 8.75 M0 26.25 C-0.2 20.05, -0.17 12.95, 0 8.75 M0 8.75 C1.17 4.74, 4.5 -0.23, 8.75 0 M0 8.75 C1.11 3.69, 1.19 0.96, 8.75 0" stroke="#000000" stroke-width="1" fill="none"></path></g><g transform="translate(909.9832918449349 589.8548887181423) rotate(0 36.5 12.5)"><text x="36.5" y="18" font-family="Virgil, Segoe UI Emoji" font-size="20px" fill="#000000" text-anchor="middle" style="white-space: pre;" direction="ltr">0, 0, 0</text></g><g stroke-linecap="round" transform="translate(250.11965548129865 691.8094341726878) rotate(0 375.4545454545454 25.45454545454544)"><path d="M12.73 0 M12.73 0 C216.48 -0.66, 420.85 -1.73, 738.18 0 M12.73 0 C219.85 1.54, 427.11 1.67, 738.18 0 M738.18 0 C748.57 1.66, 752.01 3.15, 750.91 12.73 M738.18 0 C747.51 0.03, 751.63 4.66, 750.91 12.73 M750.91 12.73 C749.64 21.01, 749.29 30.14, 750.91 38.18 M750.91 12.73 C750.29 19.51, 751.72 27.98, 750.91 38.18 M750.91 38.18 C752.02 47.84, 747.87 50.1, 738.18 50.91 M750.91 38.18 C752.81 48.59, 747.09 50.24, 738.18 50.91 M738.18 50.91 C460.7 49.33, 182.84 48.48, 12.73 50.91 M738.18 50.91 C573.56 50.7, 409.66 50.68, 12.73 50.91 M12.73 50.91 C3.76 49.65, -0.75 46.33, 0 38.18 M12.73 50.91 C3.33 50.36, 1.37 46.43, 0 38.18 M0 38.18 C-0.18 30.38, -1.3 19.54, 0 12.73 M0 38.18 C0.81 31.52, -0.17 23.91, 0 12.73 M0 12.73 C-0.71 4.5, 2.72 0.43, 12.73 0 M0 12.73 C-0.41 5.39, 4.56 -0.86, 12.73 0" stroke="#000000" stroke-width="1" fill="none"></path></g><g transform="translate(267.0013719932094 705.7086169691256) rotate(0 47.5 12)"><text x="0" y="19" font-family="Cascadia, Segoe UI Emoji" font-size="20px" fill="#000000" text-anchor="start" style="white-space: pre;" direction="ltr">Universe</text></g><g stroke-linecap="round" transform="translate(541.4378372994804 699.7639796272332) rotate(0 46 17.5)"><path d="M8.75 0 M8.75 0 C35.4 1.73, 61.72 -0.77, 83.25 0 M8.75 0 C36.52 0.15, 62.94 -1.23, 83.25 0 M83.25 0 C89.82 0.03, 92.63 3.28, 92 8.75 M83.25 0 C90.89 -1.27, 93.92 1.62, 92 8.75 M92 8.75 C91.64 12.83, 90.81 15.78, 92 26.25 M92 8.75 C92.63 13.61, 92.67 17.08, 92 26.25 M92 26.25 C93.66 33.76, 89.45 34.42, 83.25 35 M92 26.25 C93.9 32.55, 87.44 35.54, 83.25 35 M83.25 35 C54.86 36, 29.06 33.75, 8.75 35 M83.25 35 C55.23 34.87, 27.31 35.33, 8.75 35 M8.75 35 C2.13 34.53, 1.19 31.88, 0 26.25 M8.75 35 C3.87 33.43, -0.04 31.68, 0 26.25 M0 26.25 C-0.08 20, -0.46 15.56, 0 8.75 M0 26.25 C-0.27 19.93, -0.63 13.57, 0 8.75 M0 8.75 C-0.36 3.91, 3.19 -0.75, 8.75 0 M0 8.75 C1.34 1.47, 3.74 0.04, 8.75 0" stroke="#000000" stroke-width="1" fill="none"></path></g><g transform="translate(550.9378372994804 704.7639796272332) rotate(0 36.5 12.5)"><text x="36.5" y="18" font-family="Virgil, Segoe UI Emoji" font-size="20px" fill="#000000" text-anchor="middle" style="white-space: pre;" direction="ltr">0, 0, 0</text></g><g stroke-linecap="round" transform="translate(640.4832918449349 699.7639796272332) rotate(0 46 17.5)"><path d="M8.75 0 M8.75 0 C24.81 -1.75, 43.86 -2.42, 83.25 0 M8.75 0 C38.45 -1.16, 67.42 -0.6, 83.25 0 M83.25 0 C89.71 0.37, 93.57 1.81, 92 8.75 M83.25 0 C91.01 -1.3, 90.44 1.21, 92 8.75 M92 8.75 C90.92 11.27, 91.07 17.4, 92 26.25 M92 8.75 C92.62 14.77, 92.82 22.22, 92 26.25 M92 26.25 C92.37 31.5, 90.74 35.4, 83.25 35 M92 26.25 C90.36 32.62, 90.5 34.97, 83.25 35 M83.25 35 C63.91 34.59, 46.72 37.29, 8.75 35 M83.25 35 C55.47 34.36, 28.05 34.29, 8.75 35 M8.75 35 C4.11 34.79, 0.83 30.72, 0 26.25 M8.75 35 C2.87 34.59, 1.03 30.39, 0 26.25 M0 26.25 C-0.57 23.47, 1.2 17.59, 0 8.75 M0 26.25 C-0.61 20.47, -0.1 14.76, 0 8.75 M0 8.75 C0.27 2.17, 4.08 -1.26, 8.75 0 M0 8.75 C0.83 2.95, 2.07 1.52, 8.75 0" stroke="#000000" stroke-width="1" fill="none"></path></g><g stroke-linecap="round" transform="translate(849.5049312380246 146.0129212775323) rotate(0 45.99999999999994 17.5)"><path d="M8.75 0 M8.75 0 C28.5 0.21, 45.51 1.38, 83.25 0 M8.75 0 C30.46 0.33, 52.64 1.43, 83.25 0 M83.25 0 C91.07 -0.73, 92.59 4.4, 92 8.75 M83.25 0 C88.46 0.6, 93.48 2.28, 92 8.75 M92 8.75 C90.54 15.62, 93.64 20.99, 92 26.25 M92 8.75 C92.45 14.33, 91.5 18.96, 92 26.25 M92 26.25 C90.76 31.82, 87.12 33.61, 83.25 35 M92 26.25 C90.04 32.44, 87.86 33.51, 83.25 35 M83.25 35 C54.95 34.73, 26.5 35.55, 8.75 35 M83.25 35 C66.74 35.53, 52.67 34.86, 8.75 35 M8.75 35 C3.97 33.74, 0.85 33.47, 0 26.25 M8.75 35 C1.95 34.84, 2.19 29.84, 0 26.25 M0 26.25 C0.18 21.93, -1.03 15.23, 0 8.75 M0 26.25 C0.42 19.67, 0.77 12.38, 0 8.75 M0 8.75 C-0.77 1.6, 0.99 -1.22, 8.75 0 M0 8.75 C-0.31 2.7, 3.42 0.99, 8.75 0" stroke="#000000" stroke-width="1" fill="none"></path></g><g transform="translate(649.9832918449349 704.7639796272332) rotate(0 36.5 12.5)"><text x="36.5" y="18" font-family="Virgil, Segoe UI Emoji" font-size="20px" fill="#000000" text-anchor="middle" style="white-space: pre;" direction="ltr">5, 8, 3</text></g><g transform="translate(859.0049312380245 151.0129212775323) rotate(0 36.5 12.5)"><text x="36.5" y="18" font-family="Virgil, Segoe UI Emoji" font-size="20px" fill="#000000" text-anchor="middle" style="white-space: pre;" direction="ltr">5, 8, 3</text></g><g stroke-linecap="round" transform="translate(738.6651100267532 699.7639796272332) rotate(0 46 17.5)"><path d="M8.75 0 M8.75 0 C24.05 0, 39.34 0, 83.25 0 M8.75 0 C33.95 0, 59.16 0, 83.25 0 M83.25 0 C89.08 0, 92 2.92, 92 8.75 M83.25 0 C89.08 0, 92 2.92, 92 8.75 M92 8.75 C92 13.35, 92 17.95, 92 26.25 M92 8.75 C92 15.27, 92 21.79, 92 26.25 M92 26.25 C92 32.08, 89.08 35, 83.25 35 M92 26.25 C92 32.08, 89.08 35, 83.25 35 M83.25 35 C53.55 35, 23.85 35, 8.75 35 M83.25 35 C59.64 35, 36.04 35, 8.75 35 M8.75 35 C2.92 35, 0 32.08, 0 26.25 M8.75 35 C2.92 35, 0 32.08, 0 26.25 M0 26.25 C0 22.33, 0 18.4, 0 8.75 M0 26.25 C0 19.39, 0 12.53, 0 8.75 M0 8.75 C0 2.92, 2.92 0, 8.75 0 M0 8.75 C0 2.92, 2.92 0, 8.75 0" stroke="#000000" stroke-width="1" fill="none"></path></g><g transform="translate(748.1651100267532 704.7639796272332) rotate(0 36.5 12.5)"><text x="36.5" y="18" font-family="Virgil, Segoe UI Emoji" font-size="20px" fill="#000000" text-anchor="middle" style="white-space: pre;" direction="ltr">0, 0, 0</text></g><g transform="translate(860.1196554812984 704.7639796272332) rotate(0 8.5 12.5)"><text x="0" y="18" font-family="Virgil, Segoe UI Emoji" font-size="20px" fill="#000000" text-anchor="start" style="white-space: pre;" direction="ltr">...</text></g><g stroke-linecap="round" transform="translate(899.574200935844 699.7639796272332) rotate(0 45.99999999999994 17.5)"><path d="M8.75 0 M8.75 0 C37.47 0.98, 63.48 -1.77, 83.25 0 M8.75 0 C34.03 0.55, 58.39 0.6, 83.25 0 M83.25 0 C87.95 -1.36, 90.52 1.05, 92 8.75 M83.25 0 C88.78 0.02, 90.61 1.48, 92 8.75 M92 8.75 C93.12 14.12, 93.19 16.73, 92 26.25 M92 8.75 C91.89 16.17, 92.32 21.52, 92 26.25 M92 26.25 C92.47 33.31, 89.06 34.1, 83.25 35 M92 26.25 C90.31 33.62, 88.69 33.95, 83.25 35 M83.25 35 C54.99 34.24, 26.93 35.16, 8.75 35 M83.25 35 C63.74 35.86, 43.75 35.42, 8.75 35 M8.75 35 C2.56 35.89, -1.47 30.83, 0 26.25 M8.75 35 C2.65 34.71, -0.77 33.88, 0 26.25 M0 26.25 C-0.58 20.04, -1.3 13.76, 0 8.75 M0 26.25 C-0.42 21.82, -0.64 16.69, 0 8.75 M0 8.75 C0.03 2.18, 4.24 1.38, 8.75 0 M0 8.75 C1.36 3.14, 2.01 -0.36, 8.75 0" stroke="#000000" stroke-width="1" fill="none"></path></g><g transform="translate(909.0742009358444 704.7639796272332) rotate(0 36.5 12.5)"><text x="36.5" y="18" font-family="Virgil, Segoe UI Emoji" font-size="20px" fill="#000000" text-anchor="middle" style="white-space: pre;" direction="ltr">0, 0, 0</text></g><g transform="translate(579.2105645722077 542.4457978090514) rotate(0 7.5 12.5)"><text x="0" y="18" font-family="Virgil, Segoe UI Emoji" font-size="20px" fill="#000000" text-anchor="start" style="white-space: pre;" direction="ltr">0</text></g><g transform="translate(577.4836853423171 658.9542954376604) rotate(0 7.5 12.5)"><text x="0" y="18" font-family="Virgil, Segoe UI Emoji" font-size="20px" fill="#000000" text-anchor="start" style="white-space: pre;" direction="ltr">0</text></g><g transform="translate(675.574200935844 541.5367068999606) rotate(0 3 12.5)"><text x="0" y="18" font-family="Virgil, Segoe UI Emoji" font-size="20px" fill="#000000" text-anchor="start" style="white-space: pre;" direction="ltr">1</text></g><g transform="translate(690.6259529662362 658.0452045285695) rotate(0 3 12.5)"><text x="0" y="18" font-family="Virgil, Segoe UI Emoji" font-size="20px" fill="#000000" text-anchor="start" style="white-space: pre;" direction="ltr">1</text></g><g transform="translate(778.7380581431299 542.4529821988642) rotate(0 7.5 12.5)"><text x="0" y="18" font-family="Virgil, Segoe UI Emoji" font-size="20px" fill="#000000" text-anchor="start" style="white-space: pre;" direction="ltr">2</text></g><g transform="translate(784.1931507864921 658.1860199857076) rotate(0 7.5 12.5)"><text x="0" y="18" font-family="Virgil, Segoe UI Emoji" font-size="20px" fill="#000000" text-anchor="start" style="white-space: pre;" direction="ltr">2</text></g><g transform="translate(932.8469282085712 540.6276159908696) rotate(0 15.5 12.5)"><text x="0" y="18" font-family="Virgil, Segoe UI Emoji" font-size="20px" fill="#000000" text-anchor="start" style="white-space: pre;" direction="ltr">169</text></g><g transform="translate(931.1200489786811 657.1361136194786) rotate(0 15.5 12.5)"><text x="0" y="18" font-family="Virgil, Segoe UI Emoji" font-size="20px" fill="#000000" text-anchor="start" style="white-space: pre;" direction="ltr">169</text></g><g transform="translate(458.2392635813193 647.3541793871669) rotate(0 0.00004999999998744897 0.00004999999998744897)" stroke="none"><path fill="#000000" d="M 1.57,-1.57 Q 1.57,-1.57 1.77,-1.27 1.98,-0.98 2.09,-0.64 2.20,-0.29 2.19,0.05 2.18,0.41 2.05,0.75 1.93,1.09 1.70,1.37 1.48,1.65 1.18,1.84 0.87,2.04 0.52,2.12 0.18,2.21 -0.17,2.18 -0.53,2.15 -0.86,2.01 -1.19,1.87 -1.46,1.63 -1.73,1.39 -1.90,1.07 -2.08,0.76 -2.15,0.41 -2.21,0.05 -2.17,-0.29 -2.12,-0.65 -1.96,-0.97 -1.80,-1.29 -1.54,-1.54 -1.29,-1.80 -0.97,-1.96 -0.65,-2.12 -0.29,-2.17 0.06,-2.21 0.41,-2.15 0.76,-2.08 1.07,-1.90 1.39,-1.73 1.63,-1.46 1.87,-1.19 2.01,-0.86 2.15,-0.53 2.18,-0.17 2.21,0.18 2.12,0.52 2.03,0.87 1.84,1.18 1.65,1.48 1.37,1.70 1.09,1.93 0.75,2.05 0.41,2.18 0.05,2.19 -0.30,2.20 -0.64,2.09 -0.98,1.98 -1.27,1.77 -1.57,1.56 -1.57,1.57 -1.57,1.57 -1.73,1.35 -1.90,1.14 -2.01,0.90 -2.12,0.66 -2.16,0.39 -2.21,0.13 -2.20,-0.13 -2.18,-0.40 -2.10,-0.65 -2.02,-0.91 -1.88,-1.14 -1.74,-1.36 -1.55,-1.55 -1.36,-1.74 -1.14,-1.88 -0.91,-2.02 -0.65,-2.10 -0.40,-2.18 -0.13,-2.20 0.13,-2.21 0.39,-2.16 0.66,-2.12 0.90,-2.01 1.14,-1.90 1.35,-1.73 1.57,-1.57 1.57,-1.57 L 1.57,-1.57 Z"></path></g><g transform="translate(458.2392635813193 660.0814521144397) rotate(0 0.00004999999998744897 0.00004999999998744897)" stroke="none"><path fill="#000000" d="M 1.57,-1.57 Q 1.57,-1.57 1.77,-1.27 1.98,-0.98 2.09,-0.64 2.20,-0.29 2.19,0.05 2.18,0.41 2.05,0.75 1.93,1.09 1.70,1.37 1.48,1.65 1.18,1.84 0.87,2.04 0.52,2.12 0.18,2.21 -0.17,2.18 -0.53,2.15 -0.86,2.01 -1.19,1.87 -1.46,1.63 -1.73,1.39 -1.90,1.07 -2.08,0.76 -2.15,0.41 -2.21,0.05 -2.17,-0.29 -2.12,-0.65 -1.96,-0.97 -1.80,-1.29 -1.54,-1.54 -1.29,-1.80 -0.97,-1.96 -0.65,-2.12 -0.29,-2.17 0.06,-2.21 0.41,-2.15 0.76,-2.08 1.07,-1.90 1.39,-1.73 1.63,-1.46 1.87,-1.19 2.01,-0.86 2.15,-0.53 2.18,-0.17 2.21,0.18 2.12,0.52 2.03,0.87 1.84,1.18 1.65,1.48 1.37,1.70 1.09,1.93 0.75,2.05 0.41,2.18 0.05,2.19 -0.30,2.20 -0.64,2.09 -0.98,1.98 -1.27,1.77 -1.57,1.56 -1.57,1.57 -1.57,1.57 -1.73,1.35 -1.90,1.14 -2.01,0.90 -2.12,0.66 -2.16,0.39 -2.21,0.13 -2.20,-0.13 -2.18,-0.40 -2.10,-0.65 -2.02,-0.91 -1.88,-1.14 -1.74,-1.36 -1.55,-1.55 -1.36,-1.74 -1.14,-1.88 -0.91,-2.02 -0.65,-2.10 -0.40,-2.18 -0.13,-2.20 0.13,-2.21 0.39,-2.16 0.66,-2.12 0.90,-2.01 1.14,-1.90 1.35,-1.73 1.57,-1.57 1.57,-1.57 L 1.57,-1.57 Z"></path></g><g transform="translate(456.4210817631375 671.8996339326216) rotate(0 0.00004999999998744897 0.00004999999998744897)" stroke="none"><path fill="#000000" d="M 1.57,-1.57 Q 1.57,-1.57 1.77,-1.27 1.98,-0.98 2.09,-0.64 2.20,-0.29 2.19,0.05 2.18,0.41 2.05,0.75 1.93,1.09 1.70,1.37 1.48,1.65 1.18,1.84 0.87,2.04 0.52,2.12 0.18,2.21 -0.17,2.18 -0.53,2.15 -0.86,2.01 -1.19,1.87 -1.46,1.63 -1.73,1.39 -1.90,1.07 -2.08,0.76 -2.15,0.41 -2.21,0.05 -2.17,-0.29 -2.12,-0.65 -1.96,-0.97 -1.80,-1.29 -1.54,-1.54 -1.29,-1.80 -0.97,-1.96 -0.65,-2.12 -0.29,-2.17 0.06,-2.21 0.41,-2.15 0.76,-2.08 1.07,-1.90 1.39,-1.73 1.63,-1.46 1.87,-1.19 2.01,-0.86 2.15,-0.53 2.18,-0.17 2.21,0.18 2.12,0.52 2.03,0.87 1.84,1.18 1.65,1.48 1.37,1.70 1.09,1.93 0.75,2.05 0.41,2.18 0.05,2.19 -0.30,2.20 -0.64,2.09 -0.98,1.98 -1.27,1.77 -1.57,1.56 -1.57,1.57 -1.57,1.57 -1.73,1.35 -1.90,1.14 -2.01,0.90 -2.12,0.66 -2.16,0.39 -2.21,0.13 -2.20,-0.13 -2.18,-0.40 -2.10,-0.65 -2.02,-0.91 -1.88,-1.14 -1.74,-1.36 -1.55,-1.55 -1.36,-1.74 -1.14,-1.88 -0.91,-2.02 -0.65,-2.10 -0.40,-2.18 -0.13,-2.20 0.13,-2.21 0.39,-2.16 0.66,-2.12 0.90,-2.01 1.14,-1.90 1.35,-1.73 1.57,-1.57 1.57,-1.57 L 1.57,-1.57 Z"></path></g><g transform="translate(255.41182195914496 559.6276159908696) rotate(0 -21.282446875286837 100.24997107994693)" stroke="none"><path fill="#000000" d="M -6.20,2.64 Q -6.20,2.64 -6.99,2.66 -7.78,2.68 -9.38,3.65 -10.98,4.61 -12.11,5.12 -13.25,5.62 -15.13,6.44 -17.02,7.27 -17.99,7.94 -18.97,8.61 -20.16,9.39 -21.35,10.18 -21.92,11.33 -22.50,12.49 -23.53,14.72 -24.55,16.96 -24.94,19.54 -25.32,22.13 -25.47,23.97 -25.61,25.80 -25.71,27.68 -25.80,29.56 -25.93,31.72 -26.06,33.88 -26.16,36.16 -26.25,38.45 -26.32,41.06 -26.39,43.67 -26.44,46.42 -26.49,49.17 -26.52,51.43 -26.56,53.69 -26.57,55.74 -26.58,57.79 -26.51,59.48 -26.45,61.17 -26.42,62.99 -26.39,64.80 -26.44,66.93 -26.49,69.07 -26.49,71.07 -26.50,73.07 -26.53,75.28 -26.57,77.50 -26.74,79.36 -26.91,81.21 -26.93,82.74 -26.95,84.26 -27.44,86.20 -27.93,88.13 -28.05,89.58 -28.18,91.04 -28.45,92.61 -28.71,94.17 -29.29,95.79 -29.87,97.41 -30.59,99.11 -31.31,100.82 -32.24,101.76 -33.16,102.70 -33.44,102.86 -33.72,103.02 -33.95,103.25 -34.17,103.48 -34.44,103.65 -34.72,103.82 -35.02,103.92 -35.33,104.02 -35.65,104.04 -35.97,104.07 -36.28,104.01 -36.60,103.96 -36.89,103.83 -37.19,103.70 -37.44,103.51 -37.70,103.31 -37.90,103.06 -38.10,102.81 -38.23,102.52 -38.37,102.23 -38.43,101.91 -38.49,101.60 -38.48,101.28 -38.46,100.96 -38.37,100.65 -38.28,100.34 -38.12,100.07 -37.95,99.79 -36.10,99.68 -34.26,99.57 -32.22,100.53 -30.17,101.49 -29.27,102.30 -28.36,103.10 -27.50,104.25 -26.65,105.40 -25.84,107.53 -25.04,109.65 -24.20,112.06 -23.36,114.48 -23.36,116.57 -23.36,118.67 -23.48,121.72 -23.60,124.76 -23.70,127.95 -23.81,131.15 -23.90,134.42 -23.98,137.68 -24.05,140.71 -24.12,143.74 -24.17,146.66 -24.22,149.59 -24.25,152.20 -24.29,154.80 -24.32,157.55 -24.34,160.30 -24.36,162.56 -24.38,164.82 -24.38,166.87 -24.38,168.92 -24.39,171.16 -24.41,173.40 -24.35,175.17 -24.28,176.93 -23.85,178.60 -23.41,180.27 -23.03,182.46 -22.66,184.65 -22.48,186.73 -22.30,188.81 -21.77,190.31 -21.24,191.82 -20.73,193.02 -20.22,194.21 -19.87,195.42 -19.52,196.63 -17.70,197.59 -15.88,198.56 -13.94,198.72 -11.99,198.88 -10.17,198.93 -8.35,198.99 -7.97,199.07 -7.59,199.15 -7.25,199.35 -6.91,199.54 -6.65,199.84 -6.40,200.14 -6.25,200.50 -6.10,200.86 -6.08,201.25 -6.05,201.64 -6.15,202.02 -6.25,202.40 -6.47,202.72 -6.69,203.05 -6.99,203.29 -7.30,203.53 -7.67,203.66 -8.04,203.79 -8.43,203.79 -8.83,203.80 -9.20,203.67 -9.57,203.55 -9.88,203.32 -10.20,203.09 -10.42,202.76 -10.64,202.44 -10.75,202.07 -10.86,201.69 -10.84,201.30 -10.83,200.91 -10.69,200.54 -10.54,200.18 -10.29,199.88 -10.04,199.58 -9.71,199.37 -9.38,199.16 -8.99,199.08 -8.61,198.99 -8.22,199.03 -7.83,199.07 -7.48,199.23 -7.12,199.39 -6.83,199.65 -6.55,199.92 -6.36,200.27 -6.17,200.61 -6.11,200.99 -6.04,201.38 -6.10,201.77 -6.16,202.15 -6.34,202.50 -6.52,202.85 -6.80,203.12 -7.08,203.39 -7.43,203.56 -7.79,203.73 -8.18,203.78 -8.57,203.82 -8.57,203.82 -8.57,203.82 -10.50,203.66 -12.43,203.51 -14.19,203.31 -15.96,203.12 -18.01,201.79 -20.06,200.47 -21.38,199.42 -22.71,198.38 -23.16,196.88 -23.62,195.38 -23.97,194.07 -24.32,192.75 -24.80,190.91 -25.29,189.07 -25.45,187.14 -25.61,185.20 -26.03,183.10 -26.46,180.99 -26.89,178.97 -27.32,176.95 -27.26,175.17 -27.20,173.40 -27.21,171.16 -27.23,168.92 -27.22,166.87 -27.22,164.82 -27.24,162.56 -27.26,160.30 -27.29,157.55 -27.32,154.81 -27.35,152.20 -27.39,149.59 -27.44,146.67 -27.50,143.74 -27.57,140.72 -27.64,137.69 -27.75,134.43 -27.85,131.17 -27.99,128.00 -28.14,124.83 -28.34,121.89 -28.55,118.95 -28.86,116.43 -29.18,113.90 -30.15,111.64 -31.13,109.38 -31.61,108.33 -32.08,107.28 -33.55,105.79 -35.02,104.29 -36.09,103.92 -37.15,103.54 -35.44,103.28 -33.72,103.02 -33.95,103.25 -34.17,103.48 -34.44,103.65 -34.72,103.82 -35.02,103.92 -35.33,104.02 -35.65,104.04 -35.97,104.07 -36.28,104.01 -36.60,103.96 -36.89,103.83 -37.19,103.70 -37.44,103.51 -37.70,103.31 -37.90,103.06 -38.10,102.81 -38.23,102.52 -38.37,102.23 -38.43,101.91 -38.49,101.60 -38.48,101.28 -38.46,100.96 -38.37,100.65 -38.28,100.34 -38.12,100.07 -37.95,99.79 -37.24,99.28 -36.53,98.77 -35.09,97.36 -33.65,95.95 -33.10,94.66 -32.55,93.38 -32.21,91.97 -31.88,90.57 -31.60,88.89 -31.33,87.22 -30.87,85.63 -30.41,84.05 -30.25,82.44 -30.08,80.82 -29.82,79.16 -29.56,77.50 -29.60,75.28 -29.63,73.07 -29.64,71.07 -29.64,69.07 -29.69,66.93 -29.74,64.80 -29.71,62.99 -29.68,61.17 -29.62,59.48 -29.55,57.79 -29.56,55.74 -29.57,53.69 -29.60,51.42 -29.64,49.16 -29.69,46.42 -29.74,43.67 -29.80,41.06 -29.87,38.44 -29.95,36.15 -30.04,33.86 -30.15,31.69 -30.26,29.51 -30.32,27.60 -30.38,25.69 -30.43,23.75 -30.48,21.82 -30.46,19.73 -30.43,17.64 -30.10,16.23 -29.77,14.82 -29.20,13.26 -28.64,11.69 -28.16,10.68 -27.69,9.68 -27.08,8.60 -26.46,7.52 -24.80,6.06 -23.13,4.59 -21.96,3.58 -20.78,2.58 -19.50,2.14 -18.23,1.70 -16.85,1.15 -15.47,0.61 -14.38,0.13 -13.29,-0.33 -12.27,-0.79 -11.25,-1.26 -9.67,-1.93 -8.08,-2.60 -7.14,-2.58 -6.20,-2.56 -5.88,-2.52 -5.57,-2.49 -5.28,-2.37 -4.98,-2.26 -4.73,-2.08 -4.47,-1.91 -4.26,-1.67 -4.05,-1.44 -3.90,-1.16 -3.76,-0.88 -3.68,-0.57 -3.61,-0.27 -3.61,0.04 -3.61,0.35 -3.68,0.66 -3.76,0.96 -3.90,1.24 -4.05,1.52 -4.26,1.75 -4.47,1.99 -4.73,2.17 -4.98,2.34 -5.28,2.46 -5.57,2.57 -5.88,2.61 -6.20,2.64 -6.20,2.64 L -6.20,2.64 Z"></path></g><g transform="translate(89.29495536800636 637.5301886048501) rotate(0 49.5 17)"><text x="0" y="27" font-family="Cascadia, Segoe UI Emoji" font-size="28px" fill="#000000" text-anchor="start" style="white-space: pre;" direction="ltr">Matrix</text></g><g stroke-linecap="round" transform="translate(311.6234426675751 123.91391086581041) rotate(0 330.42065295929547 39.59901041172187)"><path d="M19.8 0 M19.8 0 C267.58 2.07, 516.16 1.4, 641.04 0 M19.8 0 C267.93 1.3, 516.78 1.33, 641.04 0 M641.04 0 C655.78 -1.61, 661.22 7.25, 660.84 19.8 M641.04 0 C656.35 -2.14, 661.43 6.5, 660.84 19.8 M660.84 19.8 C662.34 27.94, 662.97 36.34, 660.84 59.4 M660.84 19.8 C660.7 33.14, 661.68 44.87, 660.84 59.4 M660.84 59.4 C660.04 71.67, 653.62 80.65, 641.04 79.2 M660.84 59.4 C660.59 70.46, 653.42 77.39, 641.04 79.2 M641.04 79.2 C462.52 77.83, 284.26 76.67, 19.8 79.2 M641.04 79.2 C512.96 77.01, 385.26 76.84, 19.8 79.2 M19.8 79.2 C5.04 80.08, -0.47 72.03, 0 59.4 M19.8 79.2 C7.11 79.42, 0.17 74.79, 0 59.4 M0 59.4 C2.01 51.22, 2.18 42.87, 0 19.8 M0 59.4 C-0.12 50.28, 0.46 42.26, 0 19.8 M0 19.8 C1.8 4.89, 7.7 1.58, 19.8 0 M0 19.8 C2.06 5.3, 7.41 1.8, 19.8 0" stroke="#000000" stroke-width="1" fill="none"></path></g><g transform="translate(330.32134621846427 151.5129212775323) rotate(0 41.49999999999997 12)"><text x="0" y="19" font-family="Cascadia, Segoe UI Emoji" font-size="20px" fill="#000000" text-anchor="start" style="white-space: pre;" direction="ltr">PixInfo</text></g><g stroke-linecap="round" transform="translate(567.1159034829348 140.5129212775323) rotate(0 75 23)"><path d="M11.5 0 M11.5 0 C43.85 -0.08, 81.63 -0.94, 138.5 0 M11.5 0 C43.75 -0.19, 76 0.94, 138.5 0 M138.5 0 C145.04 -1.34, 151.7 2.02, 150 11.5 M138.5 0 C144.28 0.16, 147.72 3.87, 150 11.5 M150 11.5 C151.4 18.38, 149.67 24.71, 150 34.5 M150 11.5 C150.56 19.23, 150.28 27.74, 150 34.5 M150 34.5 C148.48 41.85, 146.63 45.71, 138.5 46 M150 34.5 C152.28 43.85, 147.63 47.06, 138.5 46 M138.5 46 C100.66 46.45, 63.96 46.43, 11.5 46 M138.5 46 C103.89 45.98, 70.71 45.49, 11.5 46 M11.5 46 C2.92 44.28, -0.45 44.01, 0 34.5 M11.5 46 C1.78 45.24, 0.22 40.32, 0 34.5 M0 34.5 C-0.91 26.04, -0.85 17.93, 0 11.5 M0 34.5 C0.42 26.08, 0.8 17.2, 0 11.5 M0 11.5 C0.39 3.17, 2.58 0.69, 11.5 0 M0 11.5 C0.96 1.71, 2.08 0.19, 11.5 0" stroke="#000000" stroke-width="1" fill="none"></path></g><g transform="translate(572.1159034829348 151.5129212775323) rotate(0 59 12)"><text x="0" y="19" font-family="Cascadia, Segoe UI Emoji" font-size="20px" fill="#000000" text-anchor="start" style="white-space: pre;" direction="ltr"> offset: 1</text></g><g stroke-linecap="round" transform="translate(424.5627903609077 140.76283229607282) rotate(0 65.80423789006716 21.624304038204286)"><path d="M10.81 0 M10.81 0 C46.89 -1.02, 82.95 -1.04, 120.8 0 M10.81 0 C49.7 0.7, 89.85 0.46, 120.8 0 M120.8 0 C129.59 -1.48, 133.3 3.99, 131.61 10.81 M120.8 0 C129.66 1.05, 133.16 2.93, 131.61 10.81 M131.61 10.81 C133.1 17.15, 132.08 26.17, 131.61 32.44 M131.61 10.81 C130.95 16.55, 131.13 20.8, 131.61 32.44 M131.61 32.44 C129.71 39.24, 129.77 42.99, 120.8 43.25 M131.61 32.44 C131.19 39.44, 128.84 41.63, 120.8 43.25 M120.8 43.25 C83.72 42.94, 50.82 44.57, 10.81 43.25 M120.8 43.25 C89.62 43.68, 58.98 44.01, 10.81 43.25 M10.81 43.25 C2.48 42.68, -1.7 38.55, 0 32.44 M10.81 43.25 C1.4 41.67, 1.09 38.07, 0 32.44 M0 32.44 C1.75 24.39, -1.78 17.3, 0 10.81 M0 32.44 C-0.49 25.82, -0.36 19.76, 0 10.81 M0 10.81 C-0.57 4.74, 5.22 0.4, 10.81 0 M0 10.81 C1.08 5.04, 4.79 0.89, 10.81 0" stroke="#000000" stroke-width="1" fill="none"></path></g><g transform="translate(443.79824505701436 151.5129212775323) rotate(0 47.5 12)"><text x="0" y="19" font-family="Cascadia, Segoe UI Emoji" font-size="20px" fill="#000000" text-anchor="start" style="white-space: pre;" direction="ltr">Universe</text></g><g stroke-linecap="round" transform="translate(239.09511267937268 127.94188515414726) rotate(0 30 37)"><path d="M15 0 M15 0 C28 0.58, 36.56 -1.65, 45 0 M15 0 C24.68 0.5, 33.62 -0.76, 45 0 M45 0 C56.21 -1.25, 60.68 6.56, 60 15 M45 0 C54.24 1.58, 58.58 5.28, 60 15 M60 15 C60.71 28.03, 61.91 44.9, 60 59 M60 15 C60.46 28.16, 59.46 43.63, 60 59 M60 59 C61.56 68.93, 56.88 74.11, 45 74 M60 59 C59.39 67.83, 54.49 75.03, 45 74 M45 74 C38.87 75.1, 29.8 74.37, 15 74 M45 74 C36.78 74.44, 27.54 74.33, 15 74 M15 74 C6.97 72.78, -1.98 69.02, 0 59 M15 74 C4.3 74.34, 0.15 69.13, 0 59 M0 59 C2.13 47.35, 1.36 35.97, 0 15 M0 59 C0.11 42.74, 0.62 27.99, 0 15 M0 15 C-1.98 3.8, 6.59 0.06, 15 0 M0 15 C-0.52 6.55, 7.26 -1, 15 0" stroke="#000000" stroke-width="1" fill="none"></path></g><g transform="translate(256.5951126793727 152.44188515414726) rotate(0 12.5 12.5)"><text x="12.5" y="18" font-family="Virgil, Segoe UI Emoji" font-size="20px" fill="#000000" text-anchor="middle" style="white-space: pre;" direction="ltr">37</text></g><g transform="translate(609.7463978745475 305.0157799023055) rotate(0 0.00004999999998744897 0.00004999999999988347)" stroke="none"><path fill="#000000" d="M 1.57,-1.57 Q 1.57,-1.57 1.77,-1.27 1.98,-0.98 2.09,-0.64 2.20,-0.29 2.19,0.05 2.18,0.41 2.05,0.75 1.93,1.09 1.70,1.37 1.48,1.65 1.18,1.84 0.87,2.04 0.52,2.12 0.18,2.21 -0.17,2.18 -0.53,2.15 -0.86,2.01 -1.19,1.87 -1.46,1.63 -1.73,1.39 -1.90,1.07 -2.08,0.76 -2.15,0.41 -2.21,0.05 -2.17,-0.29 -2.12,-0.65 -1.96,-0.97 -1.80,-1.29 -1.54,-1.54 -1.29,-1.80 -0.97,-1.96 -0.65,-2.12 -0.29,-2.17 0.06,-2.21 0.41,-2.15 0.76,-2.08 1.07,-1.90 1.39,-1.73 1.63,-1.46 1.87,-1.19 2.01,-0.86 2.15,-0.53 2.18,-0.17 2.21,0.18 2.12,0.52 2.03,0.87 1.84,1.18 1.65,1.48 1.37,1.70 1.09,1.93 0.75,2.05 0.41,2.18 0.05,2.19 -0.30,2.20 -0.64,2.09 -0.98,1.98 -1.27,1.77 -1.57,1.56 -1.57,1.57 -1.57,1.57 -1.73,1.35 -1.90,1.14 -2.01,0.90 -2.12,0.66 -2.16,0.39 -2.21,0.13 -2.20,-0.13 -2.18,-0.40 -2.10,-0.65 -2.02,-0.91 -1.88,-1.14 -1.74,-1.36 -1.55,-1.55 -1.36,-1.74 -1.14,-1.88 -0.91,-2.02 -0.65,-2.10 -0.40,-2.18 -0.13,-2.20 0.13,-2.21 0.39,-2.16 0.66,-2.12 0.90,-2.01 1.14,-1.90 1.35,-1.73 1.57,-1.57 1.57,-1.57 L 1.57,-1.57 Z"></path></g><g transform="translate(608.5817210977323 317.82722444727443) rotate(0 0.00004999999998744897 0.000050000000000105516)" stroke="none"><path fill="#000000" d="M 1.57,-1.57 Q 1.57,-1.57 1.77,-1.27 1.98,-0.98 2.09,-0.64 2.20,-0.29 2.19,0.05 2.18,0.41 2.05,0.75 1.93,1.09 1.70,1.37 1.48,1.65 1.18,1.84 0.87,2.04 0.52,2.12 0.18,2.21 -0.17,2.18 -0.53,2.15 -0.86,2.01 -1.19,1.87 -1.46,1.63 -1.73,1.39 -1.90,1.07 -2.08,0.76 -2.15,0.41 -2.21,0.05 -2.17,-0.29 -2.12,-0.65 -1.96,-0.97 -1.80,-1.29 -1.54,-1.54 -1.29,-1.80 -0.97,-1.96 -0.65,-2.12 -0.29,-2.17 0.06,-2.21 0.41,-2.15 0.76,-2.08 1.07,-1.90 1.39,-1.73 1.63,-1.46 1.87,-1.19 2.01,-0.86 2.15,-0.53 2.18,-0.17 2.21,0.18 2.12,0.52 2.03,0.87 1.84,1.18 1.65,1.48 1.37,1.70 1.09,1.93 0.75,2.05 0.41,2.18 0.05,2.19 -0.30,2.20 -0.64,2.09 -0.98,1.98 -1.27,1.77 -1.57,1.56 -1.57,1.57 -1.57,1.57 -1.73,1.35 -1.90,1.14 -2.01,0.90 -2.12,0.66 -2.16,0.39 -2.21,0.13 -2.20,-0.13 -2.18,-0.40 -2.10,-0.65 -2.02,-0.91 -1.88,-1.14 -1.74,-1.36 -1.55,-1.55 -1.36,-1.74 -1.14,-1.88 -0.91,-2.02 -0.65,-2.10 -0.40,-2.18 -0.13,-2.20 0.13,-2.21 0.39,-2.16 0.66,-2.12 0.90,-2.01 1.14,-1.90 1.35,-1.73 1.57,-1.57 1.57,-1.57 L 1.57,-1.57 Z"></path></g><g transform="translate(607.4170443209168 331.8033457690586) rotate(0 0.00004999999998744897 0.00004999999999988347)" stroke="none"><path fill="#000000" d="M 1.57,-1.57 Q 1.57,-1.57 1.77,-1.27 1.98,-0.98 2.09,-0.64 2.20,-0.29 2.19,0.05 2.18,0.41 2.05,0.75 1.93,1.09 1.70,1.37 1.48,1.65 1.18,1.84 0.87,2.04 0.52,2.12 0.18,2.21 -0.17,2.18 -0.53,2.15 -0.86,2.01 -1.19,1.87 -1.46,1.63 -1.73,1.39 -1.90,1.07 -2.08,0.76 -2.15,0.41 -2.21,0.05 -2.17,-0.29 -2.12,-0.65 -1.96,-0.97 -1.80,-1.29 -1.54,-1.54 -1.29,-1.80 -0.97,-1.96 -0.65,-2.12 -0.29,-2.17 0.06,-2.21 0.41,-2.15 0.76,-2.08 1.07,-1.90 1.39,-1.73 1.63,-1.46 1.87,-1.19 2.01,-0.86 2.15,-0.53 2.18,-0.17 2.21,0.18 2.12,0.52 2.03,0.87 1.84,1.18 1.65,1.48 1.37,1.70 1.09,1.93 0.75,2.05 0.41,2.18 0.05,2.19 -0.30,2.20 -0.64,2.09 -0.98,1.98 -1.27,1.77 -1.57,1.56 -1.57,1.57 -1.57,1.57 -1.73,1.35 -1.90,1.14 -2.01,0.90 -2.12,0.66 -2.16,0.39 -2.21,0.13 -2.20,-0.13 -2.18,-0.40 -2.10,-0.65 -2.02,-0.91 -1.88,-1.14 -1.74,-1.36 -1.55,-1.55 -1.36,-1.74 -1.14,-1.88 -0.91,-2.02 -0.65,-2.10 -0.40,-2.18 -0.13,-2.20 0.13,-2.21 0.39,-2.16 0.66,-2.12 0.90,-2.01 1.14,-1.90 1.35,-1.73 1.57,-1.57 1.57,-1.57 L 1.57,-1.57 Z"></path></g><g transform="translate(132.5463335947773 247.9227391601376) rotate(0 25 17)"><text x="0" y="27" font-family="Cascadia, Segoe UI Emoji" font-size="28px" fill="#000000" text-anchor="start" style="white-space: pre;" direction="ltr">Map</text></g><g transform="translate(253.67271838357357 114.00878850458832) rotate(0 -20.38184359426856 163.05474875414885)" stroke="none"><path fill="#000000" d="M -0.62,2.48 Q -0.62,2.48 -1.96,2.14 -3.31,1.80 -4.49,1.26 -5.66,0.71 -7.81,0.56 -9.96,0.42 -11.80,0.43 -13.64,0.44 -14.64,0.81 -15.65,1.18 -16.82,1.91 -17.99,2.65 -19.44,3.49 -20.89,4.34 -22.56,5.30 -24.23,6.26 -25.89,7.51 -27.55,8.77 -28.47,9.92 -29.40,11.08 -30.56,12.34 -31.71,13.59 -32.38,14.90 -33.05,16.20 -33.74,17.32 -34.44,18.44 -34.97,19.47 -35.51,20.50 -36.50,22.47 -37.50,24.44 -37.89,26.14 -38.27,27.84 -38.86,30.00 -39.45,32.16 -39.66,33.97 -39.87,35.79 -40.02,38.21 -40.16,40.63 -40.24,43.68 -40.32,46.73 -40.37,49.36 -40.42,52.00 -40.12,54.71 -39.82,57.42 -39.04,60.53 -38.27,63.64 -37.60,66.34 -36.93,69.05 -36.64,71.96 -36.34,74.88 -35.57,78.00 -34.80,81.12 -34.45,83.90 -34.11,86.68 -33.64,89.47 -33.16,92.27 -32.96,95.21 -32.75,98.14 -32.66,100.73 -32.58,103.32 -32.54,106.09 -32.50,108.87 -32.49,111.05 -32.48,113.23 -32.47,115.84 -32.46,118.44 -32.46,121.22 -32.46,124.00 -32.46,126.52 -32.46,129.04 -32.38,130.78 -32.30,132.53 -32.66,134.72 -33.02,136.91 -33.12,138.74 -33.22,140.58 -33.56,142.21 -33.90,143.84 -34.35,145.25 -34.81,146.66 -35.35,147.74 -35.90,148.81 -36.81,150.86 -37.71,152.90 -38.46,155.06 -39.20,157.22 -39.93,158.13 -40.67,159.05 -39.93,160.17 -39.19,161.30 -38.42,162.26 -37.65,163.21 -37.03,164.75 -36.40,166.30 -35.76,168.47 -35.11,170.64 -34.22,173.28 -33.33,175.91 -32.60,177.23 -31.88,178.56 -30.73,180.78 -29.58,183.00 -29.39,184.29 -29.20,185.59 -29.21,187.50 -29.21,189.42 -29.32,191.55 -29.42,193.68 -29.51,196.26 -29.60,198.84 -29.67,201.61 -29.74,204.38 -29.79,206.56 -29.84,208.75 -30.19,210.81 -30.53,212.88 -31.06,215.07 -31.58,217.25 -31.79,219.41 -32.01,221.57 -32.12,224.50 -32.22,227.42 -32.27,230.68 -32.32,233.93 -32.35,237.33 -32.38,240.72 -32.39,242.84 -32.40,244.95 -32.41,247.52 -32.42,250.09 -32.42,252.53 -32.43,254.96 -32.43,257.67 -32.44,260.37 -32.44,263.20 -32.44,266.02 -32.45,269.23 -32.45,272.44 -32.45,275.82 -32.45,279.19 -32.45,281.63 -32.45,284.07 -32.45,287.11 -32.45,290.16 -32.45,292.79 -32.45,295.42 -32.12,298.14 -31.80,300.85 -31.33,303.33 -30.86,305.81 -29.69,308.42 -28.53,311.03 -27.35,313.52 -26.18,316.01 -25.30,317.73 -24.43,319.44 -23.95,320.51 -23.47,321.59 -22.72,322.39 -21.96,323.18 -20.80,323.28 -19.63,323.38 -17.04,324.35 -14.45,325.33 -12.01,325.64 -9.56,325.95 -7.44,325.50 -5.32,325.05 -3.18,323.67 -1.05,322.28 0.74,321.16 2.54,320.03 2.79,319.92 3.04,319.80 3.32,319.78 3.59,319.75 3.86,319.81 4.13,319.87 4.36,320.01 4.60,320.15 4.77,320.36 4.95,320.57 5.05,320.83 5.15,321.09 5.17,321.36 5.18,321.64 5.11,321.90 5.03,322.17 4.87,322.39 4.72,322.62 4.50,322.79 4.28,322.95 4.02,323.04 3.76,323.13 3.48,323.13 3.21,323.12 2.95,323.04 2.68,322.95 2.47,322.78 2.25,322.61 2.09,322.38 1.94,322.15 1.87,321.89 1.80,321.62 1.81,321.35 1.83,321.07 1.93,320.82 2.03,320.56 2.21,320.35 2.39,320.14 2.63,320.00 2.87,319.86 3.14,319.80 3.40,319.75 3.68,319.78 3.95,319.81 4.20,319.92 4.45,320.04 4.65,320.23 4.85,320.42 4.98,320.67 5.10,320.91 5.15,321.18 5.19,321.45 5.15,321.73 5.10,322.00 4.97,322.24 4.84,322.48 4.64,322.67 4.44,322.86 4.44,322.86 4.44,322.86 2.72,324.10 0.99,325.34 -1.63,327.15 -4.26,328.97 -7.04,329.74 -9.83,330.52 -11.91,330.42 -14.00,330.31 -16.23,329.21 -18.47,328.10 -19.80,327.83 -21.13,327.56 -23.18,326.35 -25.22,325.13 -25.86,323.96 -26.49,322.79 -26.72,321.72 -26.95,320.65 -27.75,318.89 -28.55,317.14 -29.75,314.61 -30.94,312.09 -32.19,309.20 -33.44,306.32 -33.92,303.74 -34.41,301.17 -34.75,298.30 -35.09,295.42 -35.09,292.79 -35.09,290.16 -35.09,287.11 -35.09,284.07 -35.09,281.63 -35.09,279.19 -35.09,275.82 -35.09,272.44 -35.10,269.23 -35.10,266.02 -35.10,263.20 -35.10,260.37 -35.10,257.66 -35.11,254.96 -35.11,252.52 -35.11,250.09 -35.12,247.52 -35.12,244.94 -35.12,242.83 -35.12,240.71 -35.11,237.31 -35.11,233.90 -35.09,230.62 -35.07,227.34 -35.00,224.32 -34.93,221.31 -34.74,218.95 -34.55,216.60 -34.12,214.47 -33.69,212.33 -33.37,210.54 -33.04,208.74 -33.10,206.56 -33.16,204.38 -33.23,201.62 -33.31,198.85 -33.42,196.29 -33.52,193.72 -33.67,191.63 -33.82,189.54 -33.93,187.82 -34.04,186.10 -34.16,184.40 -34.28,182.69 -34.94,181.63 -35.61,180.56 -36.43,179.02 -37.25,177.47 -38.40,174.92 -39.56,172.37 -40.75,169.48 -41.93,166.60 -42.99,165.34 -44.06,164.08 -44.57,163.15 -45.09,162.23 -45.74,160.66 -46.38,159.10 -45.61,157.69 -44.83,156.29 -43.66,154.97 -42.49,153.64 -42.01,152.17 -41.53,150.70 -40.84,149.60 -40.14,148.50 -39.19,146.91 -38.23,145.32 -37.68,144.15 -37.13,142.97 -36.68,141.65 -36.23,140.34 -36.04,138.40 -35.86,136.45 -35.55,134.49 -35.24,132.52 -35.16,130.78 -35.09,129.04 -35.09,126.52 -35.09,124.00 -35.09,121.22 -35.10,118.45 -35.10,115.85 -35.11,113.25 -35.13,111.08 -35.14,108.90 -35.18,106.15 -35.22,103.40 -35.31,100.87 -35.39,98.33 -35.59,95.52 -35.79,92.71 -36.27,89.86 -36.76,87.01 -37.09,84.39 -37.41,81.76 -38.23,78.46 -39.04,75.16 -39.32,72.44 -39.60,69.71 -40.29,67.02 -40.98,64.33 -41.83,61.04 -42.67,57.76 -43.02,54.87 -43.38,51.98 -43.39,49.34 -43.41,46.69 -43.41,43.60 -43.41,40.51 -43.38,37.96 -43.34,35.40 -43.12,33.38 -42.90,31.35 -42.49,29.20 -42.07,27.05 -41.66,24.93 -41.25,22.81 -40.38,20.51 -39.51,18.21 -38.80,17.06 -38.09,15.92 -37.42,15.07 -36.76,14.23 -35.81,12.49 -34.86,10.75 -33.78,9.57 -32.69,8.39 -31.52,6.97 -30.34,5.55 -28.62,3.89 -26.90,2.23 -25.34,1.06 -23.78,-0.10 -21.50,-1.63 -19.22,-3.15 -17.72,-4.05 -16.22,-4.94 -14.89,-5.00 -13.56,-5.05 -11.58,-4.94 -9.60,-4.82 -8.24,-4.71 -6.88,-4.61 -4.46,-3.87 -2.04,-3.14 -0.71,-2.81 0.62,-2.48 0.90,-2.37 1.19,-2.26 1.45,-2.08 1.70,-1.91 1.90,-1.67 2.11,-1.44 2.25,-1.17 2.39,-0.89 2.46,-0.59 2.54,-0.30 2.54,0.00 2.54,0.31 2.46,0.61 2.39,0.91 2.24,1.18 2.10,1.46 1.89,1.69 1.69,1.92 1.43,2.09 1.18,2.27 0.89,2.37 0.60,2.48 0.29,2.52 -0.00,2.56 -0.31,2.52 -0.62,2.48 -0.62,2.48 L -0.62,2.48 Z"></path></g><g mask="url(#mask-Nhzhf-Y9FcYHJIL4_9BoJ)" stroke-linecap="round"><g transform="translate(575.5713672660306 771.6931508928527) rotate(0 -0.1859718695688457 84.26140910566042)"><path d="M1.24 2.15 C1.26 29.22, 1.27 137.33, 1.13 164.8 M-1.53 0.85 C-1.93 29.49, -0.81 139.39, -0.8 167.67" stroke="#000000" stroke-width="2" fill="none"></path></g><g transform="translate(575.5713672660306 771.6931508928527) rotate(0 -0.1859718695688457 84.26140910566042)"><path d="M-2.66 166.73 L-11 152.93 L4.84 155.21 L-0.1 166.54" stroke="none" stroke-width="0" fill="#000000" fill-rule="evenodd"></path><path d="M1.51 168.29 C-4.68 163.03, -4.51 158.36, -4.68 155.91 M-0.04 167.45 C-4.38 164.34, -6.76 157.92, -6.62 155.61 M-6.75 151.7 C-1.99 154.82, 1.59 156.11, 3.8 156 M-6.47 153.46 C-4.27 153.97, 0.97 152.99, 4.45 155.06 M6.21 152.73 C5.11 158.2, -0.12 165.11, 0.06 169.57 M5.42 153.43 C5.57 156.78, 2.21 159.7, -0.83 168.9 M-0.8 167.67 C-0.8 167.67, -0.8 167.67, -0.8 167.67 M-0.8 167.67 C-0.8 167.67, -0.8 167.67, -0.8 167.67" stroke="#000000" stroke-width="2" fill="none"></path></g></g><mask id="mask-Nhzhf-Y9FcYHJIL4_9BoJ"><rect x="0" y="0" fill="#fff" width="676.1289284672483" height="1037.88684886277"></rect><rect x="469.8501478666394" y="811.7899998778114" fill="#000" width="212" height="86" opacity="1"></rect></mask><g transform="translate(469.8501478666394 811.7899998778115) rotate(0 105.53524752982236 44.16456012070179)"><text x="106" y="35" font-family="Cascadia, Segoe UI Emoji" font-size="36px" fill="#000000" text-anchor="middle" style="white-space: pre;" direction="ltr">Multiverse</text><text x="106" y="78" font-family="Cascadia, Segoe UI Emoji" font-size="36px" fill="#000000" text-anchor="middle" style="white-space: pre;" direction="ltr">.pub()</text></g><g stroke-linecap="round" transform="translate(188.95516603057843 979.2058872643097) rotate(0 405.2830358685973 20.770497440428358)"><path d="M10.39 0 M10.39 0 C250.6 0.95, 489.15 -0.28, 800.18 0 M10.39 0 C199.16 2.22, 386.15 1.1, 800.18 0 M800.18 0 C804.89 -2.95, 810.09 4.88, 810.57 10.39 M800.18 0 C811.37 -4.25, 810.4 2.18, 810.57 10.39 M810.57 10.39 C812.2 18.33, 812.06 23.65, 810.57 31.16 M810.57 10.39 C811.92 16.02, 812.84 24.11, 810.57 31.16 M810.57 31.16 C813.32 40.51, 811.05 39.4, 800.18 41.54 M810.57 31.16 C806.62 39.59, 809.86 44.68, 800.18 41.54 M800.18 41.54 C555.32 41.87, 310.88 41.18, 10.39 41.54 M800.18 41.54 C516.52 36.94, 233.37 37.61, 10.39 41.54 M10.39 41.54 C2.29 45.04, -3.81 34.94, 0 31.16 M10.39 41.54 C2.55 41.74, -2.8 40.99, 0 31.16 M0 31.16 C-2.05 25.21, 1.72 24.47, 0 10.39 M0 31.16 C1.8 26.2, -0.07 16.68, 0 10.39 M0 10.39 C-2.73 6.57, 4.21 -3.41, 10.39 0 M0 10.39 C1.45 4.02, 3.46 1.65, 10.39 0" stroke="#000000" stroke-width="1" fill="none"></path></g><g stroke-linecap="round" transform="translate(191.65728231036576 1036.6421314456918) rotate(0 403.5781215965383 20.770497440428358)"><path d="M10.39 0 M10.39 0 C240.24 -0.88, 469.03 -1.09, 796.77 0 M10.39 0 C259.76 0.84, 507.93 0.76, 796.77 0 M796.77 0 C806.94 1.19, 803.31 6.33, 807.16 10.39 M796.77 0 C803.16 1.61, 805.85 4.32, 807.16 10.39 M807.16 10.39 C808.22 17.88, 809.5 23.12, 807.16 31.16 M807.16 10.39 C808.18 19.38, 805.17 24.39, 807.16 31.16 M807.16 31.16 C803.23 42.07, 806.8 40.12, 796.77 41.54 M807.16 31.16 C805.3 35.56, 807.75 45.5, 796.77 41.54 M796.77 41.54 C515.74 45.06, 236.94 44.74, 10.39 41.54 M796.77 41.54 C586.77 42.85, 375.85 43.57, 10.39 41.54 M10.39 41.54 C1.43 38.37, -1.41 40.7, 0 31.16 M10.39 41.54 C6.65 44.57, 3.07 33.49, 0 31.16 M0 31.16 C-0.68 25.71, 0.94 16.76, 0 10.39 M0 31.16 C-0.96 23.07, -0.47 18.99, 0 10.39 M0 10.39 C-3.85 -0.4, 4.96 -1.78, 10.39 0 M0 10.39 C1.62 0.83, 4.53 3.21, 10.39 0" stroke="#000000" stroke-width="1" fill="none"></path></g><g stroke-linecap="round" transform="translate(192.82081058161873 1126.6357883129162) rotate(0 404.4622320683504 20.770497440428358)"><path d="M10.39 0 M10.39 0 C189.46 4.44, 369.66 6.2, 798.54 0 M10.39 0 C209.12 -1.43, 409.01 -0.79, 798.54 0 M798.54 0 C807.27 -0.48, 811.54 2.62, 808.92 10.39 M798.54 0 C802.63 -1.75, 812.86 4.94, 808.92 10.39 M808.92 10.39 C806.99 18.85, 810.21 23.6, 808.92 31.16 M808.92 10.39 C807.48 16.14, 811.09 23.28, 808.92 31.16 M808.92 31.16 C806.92 40.29, 805.45 43.67, 798.54 41.54 M808.92 31.16 C811.42 33.62, 807.42 37.79, 798.54 41.54 M798.54 41.54 C622.72 34.64, 447.32 35.56, 10.39 41.54 M798.54 41.54 C555.33 38.06, 312.56 36.6, 10.39 41.54 M10.39 41.54 C1.49 43.7, -1.73 36.95, 0 31.16 M10.39 41.54 C5.85 37.44, 2.85 41.06, 0 31.16 M0 31.16 C0.32 25.85, -3.73 18.19, 0 10.39 M0 31.16 C-1.8 23.75, 1.05 18.7, 0 10.39 M0 10.39 C-2.71 -0.43, 5.58 1.4, 10.39 0 M0 10.39 C3.45 4.5, 4.04 4.46, 10.39 0" stroke="#000000" stroke-width="1" fill="none"></path></g><g transform="translate(10 11.37549003420196) rotate(0 106 21.5)"><text x="0" y="35" font-family="Cascadia, Segoe UI Emoji" font-size="36px" fill="#000000" text-anchor="start" style="white-space: pre;" direction="ltr">Multiverse</text></g><g transform="translate(206.91829497642254 787.9060088524126) rotate(0 -75.18698535463409 -353.55784779857686)" stroke="none"><path fill="#000000" d="M -0.50,1.51 Q -0.50,1.51 -2.06,1.06 -3.63,0.60 -5.80,-0.18 -7.98,-0.96 -12.32,-1.27 -16.66,-1.59 -24.21,-1.75 -31.76,-1.91 -43.22,-1.99 -54.67,-2.06 -71.89,-2.10 -89.11,-2.14 -101.57,-2.17 -114.04,-2.19 -121.40,-2.20 -128.75,-2.21 -132.64,-2.35 -136.53,-2.49 -137.94,-4.22 -139.34,-5.95 -139.87,-13.09 -140.39,-20.24 -140.56,-29.86 -140.74,-39.49 -140.81,-55.93 -140.88,-72.37 -140.90,-96.34 -140.93,-120.31 -140.94,-150.05 -140.95,-179.80 -140.95,-214.05 -140.95,-248.31 -143.01,-281.87 -145.07,-315.43 -146.97,-347.22 -148.87,-379.00 -149.68,-408.48 -150.49,-437.96 -150.84,-467.99 -151.18,-498.02 -151.32,-522.62 -151.47,-547.22 -151.53,-566.43 -151.59,-585.63 -151.62,-600.48 -151.65,-615.34 -151.66,-626.28 -151.67,-637.23 -151.67,-644.97 -151.68,-652.71 -151.68,-659.60 -151.68,-666.49 -151.16,-672.05 -150.65,-677.62 -149.91,-682.56 -149.17,-687.51 -148.34,-691.69 -147.51,-695.87 -147.16,-698.61 -146.82,-701.36 -146.73,-703.11 -146.64,-704.86 -145.89,-706.06 -145.13,-707.27 -142.95,-707.82 -140.78,-708.38 -134.74,-708.46 -128.70,-708.54 -120.52,-708.56 -112.34,-708.57 -100.11,-708.56 -87.88,-708.56 -76.51,-708.54 -65.14,-708.53 -56.74,-708.52 -48.33,-708.51 -48.11,-708.48 -47.88,-708.44 -47.68,-708.33 -47.48,-708.23 -47.33,-708.06 -47.17,-707.90 -47.08,-707.69 -46.98,-707.49 -46.96,-707.26 -46.93,-707.04 -46.98,-706.81 -47.03,-706.59 -47.14,-706.40 -47.26,-706.20 -47.43,-706.06 -47.61,-705.91 -47.82,-705.83 -48.03,-705.74 -48.25,-705.73 -48.48,-705.72 -48.70,-705.78 -48.92,-705.84 -49.10,-705.97 -49.29,-706.09 -49.43,-706.27 -49.57,-706.45 -49.64,-706.67 -49.71,-706.88 -49.71,-707.11 -49.71,-707.34 -49.64,-707.55 -49.57,-707.77 -49.43,-707.95 -49.29,-708.13 -49.11,-708.25 -48.92,-708.38 -48.70,-708.44 -48.48,-708.50 -48.26,-708.49 -48.03,-708.48 -47.82,-708.40 -47.61,-708.31 -47.44,-708.16 -47.26,-708.02 -47.15,-707.82 -47.03,-707.63 -46.98,-707.41 -46.93,-707.19 -46.96,-706.96 -46.98,-706.74 -47.07,-706.53 -47.17,-706.33 -47.33,-706.16 -47.48,-706.00 -47.68,-705.89 -47.88,-705.78 -48.11,-705.75 -48.33,-705.71 -48.33,-705.71 -48.33,-705.71 -56.73,-705.69 -65.14,-705.66 -76.51,-705.63 -87.88,-705.60 -100.10,-705.54 -112.31,-705.49 -120.47,-705.39 -128.63,-705.29 -134.41,-705.11 -140.19,-704.94 -142.00,-704.64 -143.80,-704.33 -144.01,-702.68 -144.21,-701.03 -144.57,-698.19 -144.93,-695.35 -145.75,-691.24 -146.57,-687.12 -147.30,-682.25 -148.03,-677.37 -148.54,-671.93 -149.05,-666.49 -149.05,-659.60 -149.05,-652.71 -149.04,-644.97 -149.04,-637.23 -149.03,-626.29 -149.01,-615.34 -148.99,-600.49 -148.96,-585.64 -148.90,-566.44 -148.84,-547.24 -148.69,-522.65 -148.54,-498.05 -148.20,-468.04 -147.85,-438.03 -147.04,-408.59 -146.23,-379.15 -144.32,-347.38 -142.42,-315.60 -140.35,-281.95 -138.29,-248.31 -138.28,-214.05 -138.27,-179.80 -138.25,-150.05 -138.23,-120.31 -138.19,-96.35 -138.14,-72.38 -138.06,-55.96 -137.97,-39.54 -137.77,-29.98 -137.57,-20.42 -137.21,-13.90 -136.86,-7.37 -136.20,-6.01 -135.54,-4.65 -132.15,-4.79 -128.75,-4.93 -121.39,-4.93 -114.04,-4.93 -101.57,-4.94 -89.10,-4.94 -71.88,-4.93 -54.65,-4.92 -43.18,-4.89 -31.71,-4.85 -24.08,-4.75 -16.45,-4.64 -11.72,-4.33 -6.99,-4.02 -4.76,-3.34 -2.54,-2.66 -1.01,-2.09 0.50,-1.51 0.67,-1.43 0.85,-1.35 1.00,-1.23 1.15,-1.10 1.26,-0.95 1.38,-0.80 1.46,-0.62 1.53,-0.44 1.56,-0.25 1.59,-0.06 1.58,0.12 1.56,0.31 1.50,0.50 1.44,0.68 1.34,0.84 1.23,1.01 1.10,1.14 0.96,1.27 0.79,1.37 0.62,1.47 0.44,1.52 0.25,1.57 0.06,1.58 -0.12,1.59 -0.31,1.55 -0.50,1.51 -0.50,1.51 L -0.50,1.51 Z"></path></g><g transform="translate(203.00574181021318 986.5916620136356) rotate(0 386.99999999999994 12)"><text x="0" y="19" font-family="Cascadia, Segoe UI Emoji" font-size="20px" fill="#000000" text-anchor="start" style="white-space: pre;" direction="ltr">ArtDMX : 10.0.0.10,0,0,0  : [0, 0, 0, 0, 0, 0, 7, 1, 5 ..... 0, 0]</text></g><g transform="translate(205.7078580900005 1044.0279061950177) rotate(0 386.99999999999994 12)"><text x="0" y="19" font-family="Cascadia, Segoe UI Emoji" font-size="20px" fill="#000000" text-anchor="start" style="white-space: pre;" direction="ltr">ArtDMX : 10.0.0.10,0,0,1  : [0, 0, 0, 0, 0, 0, 0, 0, 0 ..... 0, 0]</text></g><g transform="translate(206.87138636125349 1134.0215630622422) rotate(0 387.00000000000006 12)"><text x="0" y="19" font-family="Cascadia, Segoe UI Emoji" font-size="20px" fill="#000000" text-anchor="start" style="white-space: pre;" direction="ltr">ArtDMX : 10.0.0.10,0,2,14 : [0, 0, 0, 5, 8, 3, 0, 0, 0 ..... 0, 0]</text></g><g transform="translate(568.893220389481 10) rotate(0 197.5 17)"><text x="0" y="27" font-family="Cascadia, Segoe UI Emoji" font-size="28px" fill="#000000" text-anchor="start" style="white-space: pre;" direction="ltr">Multiverse[10] = 7, 1, 5</text></g><g transform="translate(837.6964012869469 37.12487196765329) rotate(0 73.24735601067846 10.210237504518773)" stroke="none"><path fill="#000000" d="M 2.31,-0.46 Q 2.31,-0.46 2.59,0.80 2.88,2.08 2.88,4.33 2.88,6.58 2.81,8.78 2.75,10.97 2.82,12.40 2.89,13.84 2.95,15.22 3.01,16.60 3.07,17.69 3.14,18.79 4.18,18.16 5.22,17.52 7.63,17.05 10.04,16.57 13.83,16.38 17.62,16.19 23.80,16.16 29.98,16.13 37.19,16.15 44.39,16.16 53.33,16.19 62.26,16.22 69.63,16.24 77.00,16.27 83.96,16.29 90.92,16.31 96.18,16.33 101.43,16.34 104.94,16.36 108.45,16.37 111.22,16.38 113.99,16.39 116.18,16.39 118.38,16.40 120.34,16.37 122.29,16.33 123.90,16.25 125.51,16.17 127.23,16.65 128.95,17.13 130.99,17.24 133.03,17.35 134.10,17.32 135.17,17.29 136.74,17.20 138.31,17.11 139.42,15.00 140.53,12.89 141.16,10.92 141.80,8.94 142.66,6.23 143.52,3.51 144.14,1.52 144.76,-0.47 144.88,-0.73 145.00,-1.00 145.20,-1.21 145.40,-1.42 145.66,-1.56 145.91,-1.69 146.20,-1.74 146.48,-1.79 146.77,-1.74 147.06,-1.70 147.31,-1.56 147.57,-1.43 147.77,-1.22 147.97,-1.01 148.09,-0.74 148.22,-0.48 148.25,-0.19 148.28,0.09 148.22,0.37 148.16,0.65 148.01,0.90 147.86,1.15 147.64,1.34 147.42,1.53 147.15,1.64 146.88,1.74 146.59,1.76 146.30,1.78 146.02,1.70 145.74,1.62 145.50,1.46 145.26,1.30 145.09,1.07 144.91,0.84 144.82,0.57 144.72,0.29 144.72,0.00 144.72,-0.28 144.81,-0.55 144.90,-0.83 145.08,-1.06 145.25,-1.29 145.49,-1.46 145.73,-1.62 146.01,-1.70 146.29,-1.78 146.58,-1.76 146.87,-1.75 147.14,-1.64 147.41,-1.53 147.63,-1.35 147.85,-1.16 148.00,-0.91 148.15,-0.66 148.22,-0.38 148.28,-0.10 148.25,0.18 148.22,0.47 148.22,0.47 148.22,0.47 147.74,2.50 147.26,4.53 146.63,7.27 146.00,10.00 145.52,12.43 145.05,14.87 144.32,16.64 143.60,18.41 142.67,19.51 141.75,20.60 140.12,21.26 138.48,21.92 136.75,21.79 135.02,21.65 133.89,21.54 132.76,21.43 130.28,20.92 127.79,20.41 126.62,19.87 125.45,19.34 123.87,19.25 122.29,19.17 120.34,19.14 118.38,19.10 116.18,19.11 113.99,19.12 111.22,19.13 108.45,19.14 104.94,19.15 101.43,19.17 96.18,19.19 90.92,19.21 83.96,19.23 77.00,19.26 69.63,19.31 62.27,19.35 53.34,19.42 44.42,19.49 37.23,19.60 30.05,19.72 23.98,19.92 17.92,20.12 14.53,20.47 11.15,20.83 8.67,21.64 6.20,22.45 4.67,22.78 3.14,23.12 1.94,23.00 0.74,22.88 -0.31,20.84 -1.37,18.81 -1.31,17.71 -1.26,16.62 -1.22,15.26 -1.17,13.89 -1.14,12.47 -1.11,11.05 -1.27,8.93 -1.42,6.81 -1.64,4.91 -1.86,3.02 -2.08,1.74 -2.31,0.46 -2.34,0.17 -2.36,-0.10 -2.31,-0.38 -2.26,-0.66 -2.15,-0.92 -2.04,-1.19 -1.87,-1.41 -1.69,-1.64 -1.47,-1.82 -1.25,-2.00 -0.99,-2.12 -0.73,-2.24 -0.46,-2.30 -0.18,-2.35 0.10,-2.34 0.38,-2.33 0.66,-2.25 0.93,-2.17 1.18,-2.02 1.42,-1.88 1.63,-1.68 1.83,-1.48 1.98,-1.24 2.14,-1.00 2.22,-0.73 2.31,-0.46 2.31,-0.46 L 2.31,-0.46 Z"></path></g><g transform="translate(942.462316550705 383.38510038176946) rotate(0 68.36419894329981 -167.35911040015617)" stroke="none"><path fill="#000000" d="M -0.69,-1.39 Q -0.69,-1.39 2.37,-2.89 5.45,-4.39 9.77,-7.03 14.09,-9.67 19.05,-12.35 24.01,-15.03 30.23,-17.96 36.44,-20.89 44.93,-25.18 53.41,-29.47 64.35,-36.87 75.29,-44.26 83.74,-51.71 92.18,-59.15 98.25,-67.84 104.32,-76.53 109.71,-86.08 115.11,-95.64 118.91,-105.51 122.71,-115.38 125.34,-125.91 127.97,-136.45 130.11,-147.31 132.25,-158.17 133.16,-168.85 134.06,-179.53 134.45,-190.45 134.83,-201.37 133.98,-212.33 133.13,-223.30 130.99,-233.78 128.85,-244.26 126.67,-252.54 124.48,-260.82 122.04,-267.88 119.59,-274.94 117.03,-280.99 114.47,-287.03 112.37,-291.10 110.27,-295.18 107.85,-299.46 105.44,-303.74 103.64,-306.83 101.85,-309.93 99.61,-312.70 97.37,-315.47 96.11,-316.90 94.85,-318.32 93.56,-319.66 92.26,-320.99 90.55,-322.28 88.84,-323.56 87.48,-324.62 86.11,-325.69 85.22,-326.34 84.33,-326.99 82.22,-328.06 80.11,-329.14 78.78,-329.35 77.44,-329.56 74.62,-330.59 71.81,-331.61 69.77,-332.04 67.73,-332.46 66.10,-332.58 64.47,-332.69 63.28,-332.67 62.08,-332.66 60.57,-332.65 59.06,-332.64 57.65,-332.61 56.24,-332.58 54.62,-332.58 53.00,-332.58 51.29,-332.59 49.58,-332.61 46.54,-332.56 43.50,-332.51 43.15,-332.57 42.79,-332.62 42.48,-332.79 42.16,-332.96 41.92,-333.22 41.67,-333.48 41.52,-333.80 41.37,-334.12 41.34,-334.48 41.30,-334.83 41.37,-335.18 41.45,-335.53 41.63,-335.84 41.82,-336.14 42.09,-336.37 42.36,-336.60 42.70,-336.74 43.03,-336.87 43.38,-336.89 43.74,-336.91 44.08,-336.81 44.43,-336.71 44.72,-336.51 45.02,-336.31 45.23,-336.03 45.45,-335.75 45.56,-335.41 45.68,-335.07 45.68,-334.71 45.68,-334.35 45.56,-334.02 45.45,-333.68 45.23,-333.39 45.02,-333.11 44.72,-332.91 44.42,-332.71 44.08,-332.62 43.74,-332.52 43.38,-332.54 43.02,-332.56 42.69,-332.69 42.36,-332.82 42.09,-333.06 41.82,-333.29 41.63,-333.59 41.45,-333.90 41.37,-334.25 41.30,-334.60 41.34,-334.95 41.37,-335.31 41.52,-335.63 41.67,-335.95 41.92,-336.21 42.17,-336.47 42.48,-336.64 42.80,-336.80 43.15,-336.86 43.50,-336.92 43.50,-336.92 43.50,-336.92 46.54,-336.87 49.58,-336.81 51.30,-336.82 53.01,-336.83 54.64,-336.82 56.27,-336.81 57.71,-336.75 59.14,-336.70 60.72,-336.63 62.30,-336.56 63.56,-336.41 64.82,-336.25 66.57,-336.04 68.33,-335.84 70.65,-335.49 72.97,-335.15 75.61,-334.38 78.24,-333.60 80.12,-333.17 82.00,-332.74 83.46,-331.92 84.91,-331.10 86.53,-329.60 88.15,-328.10 89.35,-326.98 90.56,-325.87 92.50,-324.44 94.43,-323.02 95.72,-321.57 97.00,-320.13 98.21,-318.62 99.41,-317.12 101.76,-314.18 104.12,-311.25 105.92,-308.14 107.72,-305.03 110.17,-300.70 112.61,-296.38 114.75,-292.22 116.88,-288.05 119.48,-281.93 122.07,-275.80 124.55,-268.65 127.03,-261.49 129.23,-253.14 131.42,-244.78 133.59,-234.14 135.75,-223.50 136.61,-212.39 137.47,-201.28 137.08,-190.30 136.69,-179.31 135.76,-168.48 134.84,-157.66 132.69,-146.73 130.53,-135.81 127.86,-125.12 125.18,-114.43 121.30,-104.38 117.42,-94.34 111.96,-84.67 106.50,-75.00 100.23,-66.08 93.96,-57.16 85.39,-49.59 76.81,-42.03 65.73,-34.54 54.64,-27.04 46.14,-22.72 37.63,-18.39 31.49,-15.48 25.36,-12.56 20.48,-9.89 15.61,-7.21 11.20,-4.47 6.79,-1.72 3.74,-0.16 0.69,1.39 0.52,1.46 0.34,1.52 0.15,1.54 -0.03,1.56 -0.21,1.53 -0.40,1.50 -0.57,1.43 -0.75,1.36 -0.90,1.25 -1.05,1.14 -1.18,1.00 -1.30,0.86 -1.38,0.69 -1.47,0.52 -1.51,0.34 -1.55,0.15 -1.55,-0.03 -1.54,-0.21 -1.49,-0.40 -1.44,-0.58 -1.35,-0.74 -1.26,-0.91 -1.14,-1.05 -1.01,-1.18 -0.85,-1.29 -0.69,-1.39 -0.69,-1.39 L -0.69,-1.39 Z"></path></g><g transform="translate(940.6866230716585 381.60940690272264) rotate(0 11.098084244042184 -15.53731794165904)" stroke="none"><path fill="#000000" d="M 0.79,-2.37 Q 0.79,-2.37 1.49,-2.17 2.20,-1.96 3.42,-2.76 4.65,-3.55 5.53,-5.26 6.41,-6.98 7.69,-8.44 8.97,-9.90 9.93,-10.90 10.90,-11.90 11.87,-13.52 12.84,-15.14 13.72,-16.57 14.60,-18.00 15.34,-20.07 16.08,-22.15 16.60,-23.27 17.12,-24.40 17.66,-26.10 18.21,-27.80 18.69,-29.09 19.18,-30.38 19.39,-32.26 19.61,-34.14 19.74,-34.54 19.88,-34.94 20.13,-35.28 20.38,-35.62 20.73,-35.86 21.08,-36.10 21.48,-36.21 21.89,-36.33 22.31,-36.31 22.73,-36.29 23.13,-36.13 23.52,-35.98 23.85,-35.71 24.17,-35.44 24.39,-35.08 24.61,-34.72 24.70,-34.30 24.80,-33.89 24.75,-33.47 24.71,-33.05 24.54,-32.67 24.36,-32.28 24.07,-31.97 23.79,-31.67 23.41,-31.46 23.04,-31.26 22.63,-31.19 22.21,-31.12 21.79,-31.19 21.37,-31.25 21.00,-31.45 20.63,-31.64 20.33,-31.95 20.04,-32.25 19.86,-32.64 19.68,-33.02 19.63,-33.44 19.58,-33.86 19.67,-34.27 19.76,-34.68 19.97,-35.05 20.19,-35.41 20.51,-35.69 20.83,-35.96 21.22,-36.12 21.61,-36.28 22.03,-36.31 22.46,-36.33 22.86,-36.22 23.27,-36.11 23.62,-35.88 23.97,-35.64 24.23,-35.31 24.49,-34.97 24.63,-34.57 24.77,-34.17 24.77,-33.75 24.77,-33.33 24.77,-33.33 24.77,-33.33 23.89,-29.99 23.01,-26.66 22.61,-24.36 22.21,-22.07 21.71,-21.00 21.22,-19.93 20.75,-18.78 20.28,-17.62 19.91,-16.40 19.54,-15.19 18.54,-13.78 17.54,-12.36 16.92,-11.38 16.31,-10.40 15.51,-9.33 14.72,-8.26 13.80,-7.30 12.88,-6.33 12.13,-5.57 11.38,-4.81 10.64,-3.05 9.91,-1.29 7.90,0.42 5.89,2.15 4.78,2.50 3.67,2.85 2.26,2.92 0.86,2.98 0.03,2.68 -0.79,2.37 -1.06,2.24 -1.33,2.11 -1.57,1.92 -1.80,1.73 -1.98,1.49 -2.16,1.25 -2.28,0.97 -2.40,0.69 -2.45,0.39 -2.50,0.10 -2.47,-0.19 -2.45,-0.49 -2.35,-0.78 -2.26,-1.07 -2.10,-1.32 -1.93,-1.58 -1.72,-1.79 -1.50,-2.00 -1.24,-2.15 -0.98,-2.30 -0.69,-2.38 -0.40,-2.47 -0.10,-2.48 0.20,-2.49 0.49,-2.43 0.79,-2.37 0.79,-2.37 L 0.79,-2.37 Z"></path></g><g transform="translate(946.0137035087985 382.49725364224605) rotate(0 19.088704899752656 -3.9953103278551794)" stroke="none"><path fill="#000000" d="M -0.67,-2.24 Q -0.67,-2.24 1.91,-2.88 4.50,-3.51 6.04,-4.07 7.58,-4.63 9.03,-5.16 10.48,-5.70 11.86,-6.20 13.24,-6.70 14.90,-7.16 16.56,-7.62 17.98,-8.08 19.40,-8.54 20.43,-9.00 21.46,-9.46 23.36,-9.92 25.27,-10.37 27.12,-9.83 28.98,-9.29 30.98,-9.11 32.98,-8.94 34.56,-8.85 36.14,-8.76 38.17,-7.15 40.19,-5.54 40.45,-5.16 40.72,-4.79 40.85,-4.35 40.98,-3.91 40.97,-3.45 40.95,-3.00 40.79,-2.57 40.63,-2.14 40.34,-1.78 40.05,-1.43 39.66,-1.18 39.28,-0.94 38.83,-0.83 38.39,-0.72 37.93,-0.76 37.47,-0.80 37.05,-0.98 36.63,-1.17 36.29,-1.48 35.95,-1.78 35.73,-2.18 35.51,-2.58 35.42,-3.04 35.34,-3.49 35.40,-3.94 35.47,-4.39 35.67,-4.80 35.88,-5.21 36.21,-5.54 36.53,-5.86 36.94,-6.06 37.36,-6.26 37.81,-6.32 38.27,-6.38 38.72,-6.29 39.17,-6.20 39.56,-5.97 39.96,-5.74 40.27,-5.40 40.57,-5.06 40.75,-4.64 40.93,-4.21 40.96,-3.76 41.00,-3.30 40.88,-2.86 40.77,-2.41 40.52,-2.03 40.27,-1.64 39.91,-1.36 39.55,-1.07 39.12,-0.92 38.69,-0.76 38.23,-0.75 37.77,-0.74 37.34,-0.88 36.90,-1.01 36.53,-1.28 36.16,-1.55 36.16,-1.55 36.16,-1.55 35.54,-2.63 34.92,-3.70 33.77,-3.72 32.62,-3.74 31.25,-3.86 29.87,-3.98 27.72,-4.67 25.56,-5.37 24.35,-5.28 23.15,-5.19 21.92,-4.76 20.70,-4.33 19.22,-3.90 17.74,-3.46 16.19,-3.01 14.64,-2.56 13.26,-2.13 11.87,-1.69 10.44,-1.22 9.00,-0.74 7.35,-0.14 5.70,0.45 3.18,1.35 0.67,2.24 0.39,2.29 0.11,2.34 -0.16,2.32 -0.44,2.30 -0.71,2.21 -0.98,2.12 -1.22,1.97 -1.46,1.82 -1.66,1.62 -1.86,1.42 -2.00,1.18 -2.14,0.93 -2.22,0.66 -2.31,0.39 -2.32,0.11 -2.33,-0.16 -2.28,-0.44 -2.23,-0.72 -2.11,-0.97 -1.99,-1.23 -1.81,-1.45 -1.63,-1.67 -1.41,-1.84 -1.19,-2.01 -0.93,-2.13 -0.67,-2.24 -0.67,-2.24 L -0.67,-2.24 Z"></path></g><g stroke-linecap="round"><g transform="translate(853.6914928947979 371.8451900484132) rotate(0 -57.19639623387104 109.52449759373167)"><path d="M0 0 C-19.07 36.51, -95.33 182.54, -114.39 219.05" stroke="#000000" stroke-width="1.5" fill="none" stroke-dasharray="8 9"></path></g></g><mask></mask><g stroke-linecap="round"><g transform="translate(943.4727730656853 398.5087030753043) rotate(0 -57.204727209593045 109.77995631302099)"><path d="M0 0 C-19.07 36.59, -95.34 182.97, -114.41 219.56" stroke="#000000" stroke-width="1.5" fill="none" stroke-dasharray="8 9"></path></g></g><mask></mask><g transform="translate(567.8214364213575 1091.385976132788) rotate(0 0.00004999999998744897 0.00004999999998744897)" stroke="none"><path fill="#000000" d="M 1.57,-1.57 Q 1.57,-1.57 1.77,-1.27 1.98,-0.98 2.09,-0.64 2.20,-0.29 2.19,0.05 2.18,0.41 2.05,0.75 1.93,1.09 1.70,1.37 1.48,1.65 1.18,1.84 0.87,2.04 0.52,2.12 0.18,2.21 -0.17,2.18 -0.53,2.15 -0.86,2.01 -1.19,1.87 -1.46,1.63 -1.73,1.39 -1.90,1.07 -2.08,0.76 -2.15,0.41 -2.21,0.05 -2.17,-0.29 -2.12,-0.65 -1.96,-0.97 -1.80,-1.29 -1.54,-1.54 -1.29,-1.80 -0.97,-1.96 -0.65,-2.12 -0.29,-2.17 0.06,-2.21 0.41,-2.15 0.76,-2.08 1.07,-1.90 1.39,-1.73 1.63,-1.46 1.87,-1.19 2.01,-0.86 2.15,-0.53 2.18,-0.17 2.21,0.18 2.12,0.52 2.03,0.87 1.84,1.18 1.65,1.48 1.37,1.70 1.09,1.93 0.75,2.05 0.41,2.18 0.05,2.19 -0.30,2.20 -0.64,2.09 -0.98,1.98 -1.27,1.77 -1.57,1.56 -1.57,1.57 -1.57,1.57 -1.73,1.35 -1.90,1.14 -2.01,0.90 -2.12,0.66 -2.16,0.39 -2.21,0.13 -2.20,-0.13 -2.18,-0.40 -2.10,-0.65 -2.02,-0.91 -1.88,-1.14 -1.74,-1.36 -1.55,-1.55 -1.36,-1.74 -1.14,-1.88 -0.91,-2.02 -0.65,-2.10 -0.40,-2.18 -0.13,-2.20 0.13,-2.21 0.39,-2.16 0.66,-2.12 0.90,-2.01 1.14,-1.90 1.35,-1.73 1.57,-1.57 1.57,-1.57 L 1.57,-1.57 Z"></path></g><g transform="translate(567.8214364213575 1103.7570365530337) rotate(0 0.00004999999998744897 0.00004999999998744897)" stroke="none"><path fill="#000000" d="M 1.57,-1.57 Q 1.57,-1.57 1.77,-1.27 1.98,-0.98 2.09,-0.64 2.20,-0.29 2.19,0.05 2.18,0.41 2.05,0.75 1.93,1.09 1.70,1.37 1.48,1.65 1.18,1.84 0.87,2.04 0.52,2.12 0.18,2.21 -0.17,2.18 -0.53,2.15 -0.86,2.01 -1.19,1.87 -1.46,1.63 -1.73,1.39 -1.90,1.07 -2.08,0.76 -2.15,0.41 -2.21,0.05 -2.17,-0.29 -2.12,-0.65 -1.96,-0.97 -1.80,-1.29 -1.54,-1.54 -1.29,-1.80 -0.97,-1.96 -0.65,-2.12 -0.29,-2.17 0.06,-2.21 0.41,-2.15 0.76,-2.08 1.07,-1.90 1.39,-1.73 1.63,-1.46 1.87,-1.19 2.01,-0.86 2.15,-0.53 2.18,-0.17 2.21,0.18 2.12,0.52 2.03,0.87 1.84,1.18 1.65,1.48 1.37,1.70 1.09,1.93 0.75,2.05 0.41,2.18 0.05,2.19 -0.30,2.20 -0.64,2.09 -0.98,1.98 -1.27,1.77 -1.57,1.56 -1.57,1.57 -1.57,1.57 -1.73,1.35 -1.90,1.14 -2.01,0.90 -2.12,0.66 -2.16,0.39 -2.21,0.13 -2.20,-0.13 -2.18,-0.40 -2.10,-0.65 -2.02,-0.91 -1.88,-1.14 -1.74,-1.36 -1.55,-1.55 -1.36,-1.74 -1.14,-1.88 -0.91,-2.02 -0.65,-2.10 -0.40,-2.18 -0.13,-2.20 0.13,-2.21 0.39,-2.16 0.66,-2.12 0.90,-2.01 1.14,-1.90 1.35,-1.73 1.57,-1.57 1.57,-1.57 L 1.57,-1.57 Z"></path></g><g transform="translate(567.8214364213575 1117.0117441461543) rotate(0 0.00004999999998744897 0.00004999999998744897)" stroke="none"><path fill="#000000" d="M 1.57,-1.57 Q 1.57,-1.57 1.77,-1.27 1.98,-0.98 2.09,-0.64 2.20,-0.29 2.19,0.05 2.18,0.41 2.05,0.75 1.93,1.09 1.70,1.37 1.48,1.65 1.18,1.84 0.87,2.04 0.52,2.12 0.18,2.21 -0.17,2.18 -0.53,2.15 -0.86,2.01 -1.19,1.87 -1.46,1.63 -1.73,1.39 -1.90,1.07 -2.08,0.76 -2.15,0.41 -2.21,0.05 -2.17,-0.29 -2.12,-0.65 -1.96,-0.97 -1.80,-1.29 -1.54,-1.54 -1.29,-1.80 -0.97,-1.96 -0.65,-2.12 -0.29,-2.17 0.06,-2.21 0.41,-2.15 0.76,-2.08 1.07,-1.90 1.39,-1.73 1.63,-1.46 1.87,-1.19 2.01,-0.86 2.15,-0.53 2.18,-0.17 2.21,0.18 2.12,0.52 2.03,0.87 1.84,1.18 1.65,1.48 1.37,1.70 1.09,1.93 0.75,2.05 0.41,2.18 0.05,2.19 -0.30,2.20 -0.64,2.09 -0.98,1.98 -1.27,1.77 -1.57,1.56 -1.57,1.57 -1.57,1.57 -1.73,1.35 -1.90,1.14 -2.01,0.90 -2.12,0.66 -2.16,0.39 -2.21,0.13 -2.20,-0.13 -2.18,-0.40 -2.10,-0.65 -2.02,-0.91 -1.88,-1.14 -1.74,-1.36 -1.55,-1.55 -1.36,-1.74 -1.14,-1.88 -0.91,-2.02 -0.65,-2.10 -0.40,-2.18 -0.13,-2.20 0.13,-2.21 0.39,-2.16 0.66,-2.12 0.90,-2.01 1.14,-1.90 1.35,-1.73 1.57,-1.57 1.57,-1.57 L 1.57,-1.57 Z"></path></g><g transform="translate(95.23258134024996 984.1938085765594) rotate(0 468 17)"><text x="0" y="27" font-family="Cascadia, Segoe UI Emoji" font-size="28px" fill="#000000" text-anchor="start" style="white-space: pre;" direction="ltr">send(                                                   )</text></g><g transform="translate(96.9683372573956 1040.2374541810336) rotate(0 468 17)"><text x="0" y="27" font-family="Cascadia, Segoe UI Emoji" font-size="28px" fill="#000000" text-anchor="start" style="white-space: pre;" direction="ltr">send(                                                   )</text></g><g transform="translate(99.88469947209182 1131.6992887120266) rotate(0 468 17)"><text x="0" y="27" font-family="Cascadia, Segoe UI Emoji" font-size="28px" fill="#000000" text-anchor="start" style="white-space: pre;" direction="ltr">send(                                                   )</text></g></svg>